<?xml version="1.0" encoding="UTF-8"?>
<!DOCTYPE svg PUBLIC "-//W3C//DTD SVG 1.1//EN"
    "http://www.w3.org/Graphics/SVG/1.1/DTD/svg11.dtd"><svg xmlns="http://www.w3.org/2000/svg" height="21.0000" stroke-opacity="1" viewBox="0 0 21 21" font-size="1" width="21.0000" xmlns:xlink="http://www.w3.org/1999/xlink" stroke="rgb(0,0,0)" version="1.1"><defs></defs><g stroke-linejoin="miter" stroke-opacity="1.0" fill-opacity="1.0" stroke="rgb(0,0,0)" stroke-width="0.0" fill="rgb(0,0,0)" stroke-linecap="butt" stroke-miterlimit="10.0"><path d="M 21.0000,21.0000 l -0.0000,-21.0000 h -21.0000 l -0.0000,21.0000 Z"/></g><g stroke-linejoin="miter" stroke-opacity="1.0" fill-opacity="1.0" stroke="rgb(0,0,0)" stroke-width="0.0" fill="rgb(255,255,255)" stroke-linecap="butt" stroke-miterlimit="10.0"><path d="M 1.0000,14.0000 l -0.0000,-1.0000 h -1.0000 l -0.0000,1.0000 ZM 1.0000,13.0000 l -0.0000,-1.0000 h -1.0000 l -0.0000,1.0000 ZM 1.0000,11.0000 l -0.0000,-1.0000 h -1.0000 l -0.0000,1.0000 ZM 1.0000,9.0000 l -0.0000,-1.0000 h -1.0000 l -0.0000,1.0000 ZM 1.0000,8.0000 l -0.0000,-1.0000 h -1.0000 l -0.0000,1.0000 ZM 2.0000,20.0000 l -0.0000,-1.0000 h -1.0000 l -0.0000,1.0000 ZM 2.0000,19.0000 l -0.0000,-1.0000 h -1.0000 l -0.0000,1.0000 ZM 2.0000,18.0000 l -0.0000,-1.0000 h -1.0000 l -0.0000,1.0000 ZM 2.0000,17.0000 l -0.0000,-1.0000 h -1.0000 l -0.0000,1.0000 ZM 2.0000,16.0000 l -0.0000,-1.0000 h -1.0000 l -0.0000,1.0000 ZM 2.0000,14.0000 l -0.0000,-1.0000 h -1.0000 l -0.0000,1.0000 ZM 2.0000,11.0000 l -0.0000,-1.0000 h -1.0000 l -0.0000,1.0000 ZM 2.0000,8.0000 l -0.0000,-1.0000 h -1.0000 l -0.0000,1.0000 ZM 2.0000,6.0000 l -0.0000,-1.0000 h -1.0000 l -0.0000,1.0000 ZM 2.0000,5.0000 l -0.0000,-1.0000 h -1.0000 l -0.0000,1.0000 ZM 2.0000,4.0000 l -0.0000,-1.0000 h -1.0000 l -0.0000,1.0000 ZM 2.0000,3.0000 l -0.0000,-1.0000 h -1.0000 l -0.0000,1.0000 ZM 2.0000,2.0000 l -0.0000,-1.0000 h -1.0000 l -0.0000,1.0000 ZM 3.0000,20.0000 l -0.0000,-1.0000 h -1.0000 l -0.0000,1.0000 ZM 3.0000,16.0000 l -0.0000,-1.0000 h -1.0000 l -0.0000,1.0000 ZM 3.0000,14.0000 l -0.0000,-1.0000 h -1.0000 l -0.0000,1.0000 ZM 3.0000,12.0000 l -0.0000,-1.0000 h -1.0000 l -0.0000,1.0000 ZM 3.0000,8.0000 l -0.0000,-1.0000 h -1.0000 l -0.0000,1.0000 ZM 3.0000,6.0000 l -0.0000,-1.0000 h -1.0000 l -0.0000,1.0000 ZM 3.0000,2.0000 l -0.0000,-1.0000 h -1.0000 l -0.0000,1.0000 ZM 4.0000,20.0000 l -0.0000,-1.0000 h -1.0000 l -0.0000,1.0000 ZM 4.0000,16.0000 l -0.0000,-1.0000 h -1.0000 l -0.0000,1.0000 ZM 4.0000,14.0000 l -0.0000,-1.0000 h -1.0000 l -0.0000,1.0000 ZM 4.0000,13.0000 l -0.0000,-1.0000 h -1.0000 l -0.0000,1.0000 ZM 4.0000,10.0000 l -0.0000,-1.0000 h -1.0000 l -0.0000,1.0000 ZM 4.0000,9.0000 l -0.0000,-1.0000 h -1.0000 l -0.0000,1.0000 ZM 4.0000,8.0000 l -0.0000,-1.0000 h -1.0000 l -0.0000,1.0000 ZM 4.0000,6.0000 l -0.0000,-1.0000 h -1.0000 l -0.0000,1.0000 ZM 4.0000,2.0000 l -0.0000,-1.0000 h -1.0000 l -0.0000,1.0000 ZM 5.0000,20.0000 l -0.0000,-1.0000 h -1.0000 l -0.0000,1.0000 ZM 5.0000,16.0000 l -0.0000,-1.0000 h -1.0000 l -0.0000,1.0000 ZM 5.0000,14.0000 l -0.0000,-1.0000 h -1.0000 l -0.0000,1.0000 ZM 5.0000,13.0000 l -0.0000,-1.0000 h -1.0000 l -0.0000,1.0000 ZM 5.0000,12.0000 l -0.0000,-1.0000 h -1.0000 l -0.0000,1.0000 ZM 5.0000,10.0000 l -0.0000,-1.0000 h -1.0000 l -0.0000,1.0000 ZM 5.0000,8.0000 l -0.0000,-1.0000 h -1.0000 l -0.0000,1.0000 ZM 5.0000,6.0000 l -0.0000,-1.0000 h -1.0000 l -0.0000,1.0000 ZM 5.0000,2.0000 l -0.0000,-1.0000 h -1.0000 l -0.0000,1.0000 ZM 6.0000,20.0000 l -0.0000,-1.0000 h -1.0000 l -0.0000,1.0000 ZM 6.0000,19.0000 l -0.0000,-1.0000 h -1.0000 l -0.0000,1.0000 ZM 6.0000,18.0000 l -0.0000,-1.0000 h -1.0000 l -0.0000,1.0000 ZM 6.0000,17.0000 l -0.0000,-1.0000 h -1.0000 l -0.0000,1.0000 ZM 6.0000,16.0000 l -0.0000,-1.0000 h -1.0000 l -0.0000,1.0000 ZM 6.0000,14.0000 l -0.0000,-1.0000 h -1.0000 l -0.0000,1.0000 ZM 6.0000,13.0000 l -0.0000,-1.0000 h -1.0000 l -0.0000,1.0000 ZM 6.0000,12.0000 l -0.0000,-1.0000 h -1.0000 l -0.0000,1.0000 ZM 6.0000,11.0000 l -0.0000,-1.0000 h -1.0000 l -0.0000,1.0000 ZM 6.0000,9.0000 l -0.0000,-1.0000 h -1.0000 l -0.0000,1.0000 ZM 6.0000,8.0000 l -0.0000,-1.0000 h -1.0000 l -0.0000,1.0000 ZM 6.0000,6.0000 l -0.0000,-1.0000 h -1.0000 l -0.0000,1.0000 ZM 6.0000,5.0000 l -0.0000,-1.0000 h -1.0000 l -0.0000,1.0000 ZM 6.0000,4.0000 l -0.0000,-1.0000 h -1.0000 l -0.0000,1.0000 ZM 6.0000,3.0000 l -0.0000,-1.0000 h -1.0000 l -0.0000,1.0000 ZM 6.0000,2.0000 l -0.0000,-1.0000 h -1.0000 l -0.0000,1.0000 ZM 7.0000,14.0000 l -0.0000,-1.0000 h -1.0000 l -0.0000,1.0000 ZM 7.0000,12.0000 l -0.0000,-1.0000 h -1.0000 l -0.0000,1.0000 ZM 7.0000,10.0000 l -0.0000,-1.0000 h -1.0000 l -0.0000,1.0000 ZM 7.0000,8.0000 l -0.0000,-1.0000 h -1.0000 l -0.0000,1.0000 ZM 8.0000,21.0000 l -0.0000,-1.0000 h -1.0000 l -0.0000,1.0000 ZM 8.0000,20.0000 l -0.0000,-1.0000 h -1.0000 l -0.0000,1.0000 ZM 8.0000,19.0000 l -0.0000,-1.0000 h -1.0000 l -0.0000,1.0000 ZM 8.0000,18.0000 l -0.0000,-1.0000 h -1.0000 l -0.0000,1.0000 ZM 8.0000,17.0000 l -0.0000,-1.0000 h -1.0000 l -0.0000,1.0000 ZM 8.0000,16.0000 l -0.0000,-1.0000 h -1.0000 l -0.0000,1.0000 ZM 8.0000,15.0000 l -0.0000,-1.0000 h -1.0000 l -0.0000,1.0000 ZM 8.0000,14.0000 l -0.0000,-1.0000 h -1.0000 l -0.0000,1.0000 ZM 8.0000,13.0000 l -0.0000,-1.0000 h -1.0000 l -0.0000,1.0000 ZM 8.0000,11.0000 l -0.0000,-1.0000 h -1.0000 l -0.0000,1.0000 ZM 8.0000,8.0000 l -0.0000,-1.0000 h -1.0000 l -0.0000,1.0000 ZM 8.0000,7.0000 l -0.0000,-1.0000 h -1.0000 l -0.0000,1.0000 ZM 8.0000,6.0000 l -0.0000,-1.0000 h -1.0000 l -0.0000,1.0000 ZM 8.0000,5.0000 l -0.0000,-1.0000 h -1.0000 l -0.0000,1.0000 ZM 8.0000,4.0000 l -0.0000,-1.0000 h -1.0000 l -0.0000,1.0000 ZM 8.0000,3.0000 l -0.0000,-1.0000 h -1.0000 l -0.0000,1.0000 ZM 8.0000,2.0000 l -0.0000,-1.0000 h -1.0000 l -0.0000,1.0000 ZM 8.0000,1.0000 l -0.0000,-1.0000 h -1.0000 l -0.0000,1.0000 ZM 9.0000,21.0000 l -0.0000,-1.0000 h -1.0000 l -0.0000,1.0000 ZM 9.0000,17.0000 l -0.0000,-1.0000 h -1.0000 l -0.0000,1.0000 ZM 9.0000,14.0000 l -0.0000,-1.0000 h -1.0000 l -0.0000,1.0000 ZM 9.0000,13.0000 l -0.0000,-1.0000 h -1.0000 l -0.0000,1.0000 ZM 9.0000,12.0000 l -0.0000,-1.0000 h -1.0000 l -0.0000,1.0000 ZM 9.0000,8.0000 l -0.0000,-1.0000 h -1.0000 l -0.0000,1.0000 ZM 9.0000,7.0000 l -0.0000,-1.0000 h -1.0000 l -0.0000,1.0000 ZM 9.0000,6.0000 l -0.0000,-1.0000 h -1.0000 l -0.0000,1.0000 ZM 9.0000,5.0000 l -0.0000,-1.0000 h -1.0000 l -0.0000,1.0000 ZM 9.0000,4.0000 l -0.0000,-1.0000 h -1.0000 l -0.0000,1.0000 ZM 9.0000,1.0000 l -0.0000,-1.0000 h -1.0000 l -0.0000,1.0000 ZM 10.0000,20.0000 l -0.0000,-1.0000 h -1.0000 l -0.0000,1.0000 ZM 10.0000,17.0000 l -0.0000,-1.0000 h -1.0000 l -0.0000,1.0000 ZM 10.0000,16.0000 l -0.0000,-1.0000 h -1.0000 l -0.0000,1.0000 ZM 10.0000,15.0000 l -0.0000,-1.0000 h -1.0000 l -0.0000,1.0000 ZM 10.0000,12.0000 l -0.0000,-1.0000 h -1.0000 l -0.0000,1.0000 ZM 10.0000,10.0000 l -0.0000,-1.0000 h -1.0000 l -0.0000,1.0000 ZM 10.0000,9.0000 l -0.0000,-1.0000 h -1.0000 l -0.0000,1.0000 ZM 10.0000,5.0000 l -0.0000,-1.0000 h -1.0000 l -0.0000,1.0000 ZM 11.0000,14.0000 l -0.0000,-1.0000 h -1.0000 l -0.0000,1.0000 ZM 11.0000,11.0000 l -0.0000,-1.0000 h -1.0000 l -0.0000,1.0000 ZM 11.0000,8.0000 l -0.0000,-1.0000 h -1.0000 l -0.0000,1.0000 ZM 11.0000,7.0000 l -0.0000,-1.0000 h -1.0000 l -0.0000,1.0000 ZM 11.0000,6.0000 l -0.0000,-1.0000 h -1.0000 l -0.0000,1.0000 ZM 11.0000,5.0000 l -0.0000,-1.0000 h -1.0000 l -0.0000,1.0000 ZM 11.0000,3.0000 l -0.0000,-1.0000 h -1.0000 l -0.0000,1.0000 ZM 12.0000,20.0000 l -0.0000,-1.0000 h -1.0000 l -0.0000,1.0000 ZM 12.0000,16.0000 l -0.0000,-1.0000 h -1.0000 l -0.0000,1.0000 ZM 12.0000,15.0000 l -0.0000,-1.0000 h -1.0000 l -0.0000,1.0000 ZM 12.0000,13.0000 l -0.0000,-1.0000 h -1.0000 l -0.0000,1.0000 ZM 12.0000,10.0000 l -0.0000,-1.0000 h -1.0000 l -0.0000,1.0000 ZM 12.0000,9.0000 l -0.0000,-1.0000 h -1.0000 l -0.0000,1.0000 ZM 12.0000,8.0000 l -0.0000,-1.0000 h -1.0000 l -0.0000,1.0000 ZM 12.0000,6.0000 l -0.0000,-1.0000 h -1.0000 l -0.0000,1.0000 ZM 12.0000,4.0000 l -0.0000,-1.0000 h -1.0000 l -0.0000,1.0000 ZM 12.0000,3.0000 l -0.0000,-1.0000 h -1.0000 l -0.0000,1.0000 ZM 12.0000,1.0000 l -0.0000,-1.0000 h -1.0000 l -0.0000,1.0000 ZM 13.0000,21.0000 l -0.0000,-1.0000 h -1.0000 l -0.0000,1.0000 ZM 13.0000,19.0000 l -0.0000,-1.0000 h -1.0000 l -0.0000,1.0000 ZM 13.0000,14.0000 l -0.0000,-1.0000 h -1.0000 l -0.0000,1.0000 ZM 13.0000,12.0000 l -0.0000,-1.0000 h -1.0000 l -0.0000,1.0000 ZM 13.0000,8.0000 l -0.0000,-1.0000 h -1.0000 l -0.0000,1.0000 ZM 13.0000,7.0000 l -0.0000,-1.0000 h -1.0000 l -0.0000,1.0000 ZM 13.0000,5.0000 l -0.0000,-1.0000 h -1.0000 l -0.0000,1.0000 ZM 13.0000,4.0000 l -0.0000,-1.0000 h -1.0000 l -0.0000,1.0000 ZM 13.0000,2.0000 l -0.0000,-1.0000 h -1.0000 l -0.0000,1.0000 ZM 13.0000,1.0000 l -0.0000,-1.0000 h -1.0000 l -0.0000,1.0000 ZM 14.0000,21.0000 l -0.0000,-1.0000 h -1.0000 l -0.0000,1.0000 ZM 14.0000,20.0000 l -0.0000,-1.0000 h -1.0000 l -0.0000,1.0000 ZM 14.0000,19.0000 l -0.0000,-1.0000 h -1.0000 l -0.0000,1.0000 ZM 14.0000,18.0000 l -0.0000,-1.0000 h -1.0000 l -0.0000,1.0000 ZM 14.0000,17.0000 l -0.0000,-1.0000 h -1.0000 l -0.0000,1.0000 ZM 14.0000,16.0000 l -0.0000,-1.0000 h -1.0000 l -0.0000,1.0000 ZM 14.0000,15.0000 l -0.0000,-1.0000 h -1.0000 l -0.0000,1.0000 ZM 14.0000,14.0000 l -0.0000,-1.0000 h -1.0000 l -0.0000,1.0000 ZM 14.0000,11.0000 l -0.0000,-1.0000 h -1.0000 l -0.0000,1.0000 ZM 14.0000,10.0000 l -0.0000,-1.0000 h -1.0000 l -0.0000,1.0000 ZM 14.0000,9.0000 l -0.0000,-1.0000 h -1.0000 l -0.0000,1.0000 ZM 14.0000,8.0000 l -0.0000,-1.0000 h -1.0000 l -0.0000,1.0000 ZM 14.0000,6.0000 l -0.0000,-1.0000 h -1.0000 l -0.0000,1.0000 ZM 14.0000,5.0000 l -0.0000,-1.0000 h -1.0000 l -0.0000,1.0000 ZM 14.0000,2.0000 l -0.0000,-1.0000 h -1.0000 l -0.0000,1.0000 ZM 14.0000,1.0000 l -0.0000,-1.0000 h -1.0000 l -0.0000,1.0000 ZM 15.0000,14.0000 l -0.0000,-1.0000 h -1.0000 l -0.0000,1.0000 ZM 15.0000,13.0000 l -0.0000,-1.0000 h -1.0000 l -0.0000,1.0000 ZM 15.0000,9.0000 l -0.0000,-1.0000 h -1.0000 l -0.0000,1.0000 ZM 15.0000,8.0000 l -0.0000,-1.0000 h -1.0000 l -0.0000,1.0000 ZM 15.0000,7.0000 l -0.0000,-1.0000 h -1.0000 l -0.0000,1.0000 ZM 15.0000,6.0000 l -0.0000,-1.0000 h -1.0000 l -0.0000,1.0000 ZM 15.0000,3.0000 l -0.0000,-1.0000 h -1.0000 l -0.0000,1.0000 ZM 16.0000,20.0000 l -0.0000,-1.0000 h -1.0000 l -0.0000,1.0000 ZM 16.0000,19.0000 l -0.0000,-1.0000 h -1.0000 l -0.0000,1.0000 ZM 16.0000,18.0000 l -0.0000,-1.0000 h -1.0000 l -0.0000,1.0000 ZM 16.0000,17.0000 l -0.0000,-1.0000 h -1.0000 l -0.0000,1.0000 ZM 16.0000,16.0000 l -0.0000,-1.0000 h -1.0000 l -0.0000,1.0000 ZM 16.0000,14.0000 l -0.0000,-1.0000 h -1.0000 l -0.0000,1.0000 ZM 16.0000,12.0000 l -0.0000,-1.0000 h -1.0000 l -0.0000,1.0000 ZM 16.0000,11.0000 l -0.0000,-1.0000 h -1.0000 l -0.0000,1.0000 ZM 16.0000,8.0000 l -0.0000,-1.0000 h -1.0000 l -0.0000,1.0000 ZM 16.0000,7.0000 l -0.0000,-1.0000 h -1.0000 l -0.0000,1.0000 ZM 16.0000,5.0000 l -0.0000,-1.0000 h -1.0000 l -0.0000,1.0000 ZM 16.0000,4.0000 l -0.0000,-1.0000 h -1.0000 l -0.0000,1.0000 ZM 16.0000,2.0000 l -0.0000,-1.0000 h -1.0000 l -0.0000,1.0000 ZM 16.0000,1.0000 l -0.0000,-1.0000 h -1.0000 l -0.0000,1.0000 ZM 17.0000,20.0000 l -0.0000,-1.0000 h -1.0000 l -0.0000,1.0000 ZM 17.0000,16.0000 l -0.0000,-1.0000 h -1.0000 l -0.0000,1.0000 ZM 17.0000,14.0000 l -0.0000,-1.0000 h -1.0000 l -0.0000,1.0000 ZM 17.0000,13.0000 l -0.0000,-1.0000 h -1.0000 l -0.0000,1.0000 ZM 17.0000,12.0000 l -0.0000,-1.0000 h -1.0000 l -0.0000,1.0000 ZM 17.0000,11.0000 l -0.0000,-1.0000 h -1.0000 l -0.0000,1.0000 ZM 17.0000,9.0000 l -0.0000,-1.0000 h -1.0000 l -0.0000,1.0000 ZM 17.0000,4.0000 l -0.0000,-1.0000 h -1.0000 l -0.0000,1.0000 ZM 17.0000,3.0000 l -0.0000,-1.0000 h -1.0000 l -0.0000,1.0000 ZM 18.0000,20.0000 l -0.0000,-1.0000 h -1.0000 l -0.0000,1.0000 ZM 18.0000,16.0000 l -0.0000,-1.0000 h -1.0000 l -0.0000,1.0000 ZM 18.0000,14.0000 l -0.0000,-1.0000 h -1.0000 l -0.0000,1.0000 ZM 18.0000,12.0000 l -0.0000,-1.0000 h -1.0000 l -0.0000,1.0000 ZM 18.0000,9.0000 l -0.0000,-1.0000 h -1.0000 l -0.0000,1.0000 ZM 18.0000,8.0000 l -0.0000,-1.0000 h -1.0000 l -0.0000,1.0000 ZM 18.0000,4.0000 l -0.0000,-1.0000 h -1.0000 l -0.0000,1.0000 ZM 18.0000,3.0000 l -0.0000,-1.0000 h -1.0000 l -0.0000,1.0000 ZM 18.0000,1.0000 l -0.0000,-1.0000 h -1.0000 l -0.0000,1.0000 ZM 19.0000,20.0000 l -0.0000,-1.0000 h -1.0000 l -0.0000,1.0000 ZM 19.0000,16.0000 l -0.0000,-1.0000 h -1.0000 l -0.0000,1.0000 ZM 19.0000,14.0000 l -0.0000,-1.0000 h -1.0000 l -0.0000,1.0000 ZM 19.0000,11.0000 l -0.0000,-1.0000 h -1.0000 l -0.0000,1.0000 ZM 19.0000,10.0000 l -0.0000,-1.0000 h -1.0000 l -0.0000,1.0000 ZM 19.0000,8.0000 l -0.0000,-1.0000 h -1.0000 l -0.0000,1.0000 ZM 19.0000,6.0000 l -0.0000,-1.0000 h -1.0000 l -0.0000,1.0000 ZM 19.0000,4.0000 l -0.0000,-1.0000 h -1.0000 l -0.0000,1.0000 ZM 19.0000,2.0000 l -0.0000,-1.0000 h -1.0000 l -0.0000,1.0000 ZM 19.0000,1.0000 l -0.0000,-1.0000 h -1.0000 l -0.0000,1.0000 ZM 20.0000,20.0000 l -0.0000,-1.0000 h -1.0000 l -0.0000,1.0000 ZM 20.0000,19.0000 l -0.0000,-1.0000 h -1.0000 l -0.0000,1.0000 ZM 20.0000,18.0000 l -0.0000,-1.0000 h -1.0000 l -0.0000,1.0000 ZM 20.0000,17.0000 l -0.0000,-1.0000 h -1.0000 l -0.0000,1.0000 ZM 20.0000,16.0000 l -0.0000,-1.0000 h -1.0000 l -0.0000,1.0000 ZM 20.0000,14.0000 l -0.0000,-1.0000 h -1.0000 l -0.0000,1.0000 ZM 20.0000,10.0000 l -0.0000,-1.0000 h -1.0000 l -0.0000,1.0000 ZM 20.0000,9.0000 l -0.0000,-1.0000 h -1.0000 l -0.0000,1.0000 ZM 20.0000,7.0000 l -0.0000,-1.0000 h -1.0000 l -0.0000,1.0000 ZM 20.0000,5.0000 l -0.0000,-1.0000 h -1.0000 l -0.0000,1.0000 ZM 20.0000,4.0000 l -0.0000,-1.0000 h -1.0000 l -0.0000,1.0000 ZM 20.0000,2.0000 l -0.0000,-1.0000 h -1.0000 l -0.0000,1.0000 ZM 20.0000,1.0000 l -0.0000,-1.0000 h -1.0000 l -0.0000,1.0000 ZM 21.0000,14.0000 l -0.0000,-1.0000 h -1.0000 l -0.0000,1.0000 ZM 21.0000,13.0000 l -0.0000,-1.0000 h -1.0000 l -0.0000,1.0000 ZM 21.0000,12.0000 l -0.0000,-1.0000 h -1.0000 l -0.0000,1.0000 ZM 21.0000,10.0000 l -0.0000,-1.0000 h -1.0000 l -0.0000,1.0000 ZM 21.0000,9.0000 l -0.0000,-1.0000 h -1.0000 l -0.0000,1.0000 ZM 21.0000,7.0000 l -0.0000,-1.0000 h -1.0000 l -0.0000,1.0000 ZM 21.0000,5.0000 l -0.0000,-1.0000 h -1.0000 l -0.0000,1.0000 ZM 21.0000,3.0000 l -0.0000,-1.0000 h -1.0000 l -0.0000,1.0000 ZM 21.0000,1.0000 l -0.0000,-1.0000 h -1.0000 l -0.0000,1.0000 Z"/></g><g stroke-linejoin="miter" stroke-opacity="1.0" fill-opacity="0.0" stroke="rgb(0,0,0)" stroke-width="0.0" fill="rgb(0,0,0)" stroke-linecap="butt" stroke-miterlimit="10.0"><path d="M 1.0000,21.0000 M 1.0000,20.0000 M 1.0000,19.0000 M 1.0000,18.0000 M 1.0000,17.0000 M 1.0000,16.0000 M 1.0000,15.0000 M 1.0000,12.0000 M 1.0000,10.0000 M 1.0000,7.0000 M 1.0000,6.0000 M 1.0000,5.0000 M 1.0000,4.0000 M 1.0000,3.0000 M 1.0000,2.0000 M 1.0000,1.0000 M 2.0000,21.0000 M 2.0000,15.0000 M 2.0000,13.0000 M 2.0000,12.0000 M 2.0000,10.0000 M 2.0000,9.0000 M 2.0000,7.0000 M 2.0000,1.0000 M 3.0000,21.0000 M 3.0000,19.0000 M 3.0000,18.0000 M 3.0000,17.0000 M 3.0000,15.0000 M 3.0000,13.0000 M 3.0000,11.0000 M 3.0000,10.0000 M 3.0000,9.0000 M 3.0000,7.0000 M 3.0000,5.0000 M 3.0000,4.0000 M 3.0000,3.0000 M 3.0000,1.0000 M 4.0000,21.0000 M 4.0000,19.0000 M 4.0000,18.0000 M 4.0000,17.0000 M 4.0000,15.0000 M 4.0000,12.0000 M 4.0000,11.0000 M 4.0000,7.0000 M 4.0000,5.0000 M 4.0000,4.0000 M 4.0000,3.0000 M 4.0000,1.0000 M 5.0000,21.0000 M 5.0000,19.0000 M 5.0000,18.0000 M 5.0000,17.0000 M 5.0000,15.0000 M 5.0000,11.0000 M 5.0000,9.0000 M 5.0000,7.0000 M 5.0000,5.0000 M 5.0000,4.0000 M 5.0000,3.0000 M 5.0000,1.0000 M 6.0000,21.0000 M 6.0000,15.0000 M 6.0000,10.0000 M 6.0000,7.0000 M 6.0000,1.0000 M 7.0000,21.0000 M 7.0000,20.0000 M 7.0000,19.0000 M 7.0000,18.0000 M 7.0000,17.0000 M 7.0000,16.0000 M 7.0000,15.0000 M 7.0000,13.0000 M 7.0000,11.0000 M 7.0000,9.0000 M 7.0000,7.0000 M 7.0000,6.0000 M 7.0000,5.0000 M 7.0000,4.0000 M 7.0000,3.0000 M 7.0000,2.0000 M 7.0000,1.0000 M 8.0000,12.0000 M 8.0000,10.0000 M 8.0000,9.0000 M 9.0000,20.0000 M 9.0000,19.0000 M 9.0000,18.0000 M 9.0000,16.0000 M 9.0000,15.0000 M 9.0000,11.0000 M 9.0000,10.0000 M 9.0000,9.0000 M 9.0000,3.0000 M 9.0000,2.0000 M 10.0000,21.0000 M 10.0000,19.0000 M 10.0000,18.0000 M 10.0000,14.0000 M 10.0000,13.0000 M 10.0000,11.0000 M 10.0000,8.0000 M 10.0000,7.0000 M 10.0000,6.0000 M 10.0000,4.0000 M 10.0000,3.0000 M 10.0000,2.0000 M 10.0000,1.0000 M 11.0000,21.0000 M 11.0000,20.0000 M 11.0000,19.0000 M 11.0000,18.0000 M 11.0000,17.0000 M 11.0000,16.0000 M 11.0000,15.0000 M 11.0000,13.0000 M 11.0000,12.0000 M 11.0000,10.0000 M 11.0000,9.0000 M 11.0000,4.0000 M 11.0000,2.0000 M 11.0000,1.0000 M 12.0000,21.0000 M 12.0000,19.0000 M 12.0000,18.0000 M 12.0000,17.0000 M 12.0000,14.0000 M 12.0000,12.0000 M 12.0000,11.0000 M 12.0000,7.0000 M 12.0000,5.0000 M 12.0000,2.0000 M 13.0000,20.0000 M 13.0000,18.0000 M 13.0000,17.0000 M 13.0000,16.0000 M 13.0000,15.0000 M 13.0000,13.0000 M 13.0000,11.0000 M 13.0000,10.0000 M 13.0000,9.0000 M 13.0000,6.0000 M 13.0000,3.0000 M 14.0000,13.0000 M 14.0000,12.0000 M 14.0000,7.0000 M 14.0000,4.0000 M 14.0000,3.0000 M 15.0000,21.0000 M 15.0000,20.0000 M 15.0000,19.0000 M 15.0000,18.0000 M 15.0000,17.0000 M 15.0000,16.0000 M 15.0000,15.0000 M 15.0000,12.0000 M 15.0000,11.0000 M 15.0000,10.0000 M 15.0000,5.0000 M 15.0000,4.0000 M 15.0000,2.0000 M 15.0000,1.0000 M 16.0000,21.0000 M 16.0000,15.0000 M 16.0000,13.0000 M 16.0000,10.0000 M 16.0000,9.0000 M 16.0000,6.0000 M 16.0000,3.0000 M 17.0000,21.0000 M 17.0000,19.0000 M 17.0000,18.0000 M 17.0000,17.0000 M 17.0000,15.0000 M 17.0000,10.0000 M 17.0000,8.0000 M 17.0000,7.0000 M 17.0000,6.0000 M 17.0000,5.0000 M 17.0000,2.0000 M 17.0000,1.0000 M 18.0000,21.0000 M 18.0000,19.0000 M 18.0000,18.0000 M 18.0000,17.0000 M 18.0000,15.0000 M 18.0000,13.0000 M 18.0000,11.0000 M 18.0000,10.0000 M 18.0000,7.0000 M 18.0000,6.0000 M 18.0000,5.0000 M 18.0000,2.0000 M 19.0000,21.0000 M 19.0000,19.0000 M 19.0000,18.0000 M 19.0000,17.0000 M 19.0000,15.0000 M 19.0000,13.0000 M 19.0000,12.0000 M 19.0000,9.0000 M 19.0000,7.0000 M 19.0000,5.0000 M 19.0000,3.0000 M 20.0000,21.0000 M 20.0000,15.0000 M 20.0000,13.0000 M 20.0000,12.0000 M 20.0000,11.0000 M 20.0000,8.0000 M 20.0000,6.0000 M 20.0000,3.0000 M 21.0000,21.0000 M 21.0000,20.0000 M 21.0000,19.0000 M 21.0000,18.0000 M 21.0000,17.0000 M 21.0000,16.0000 M 21.0000,15.0000 M 21.0000,11.0000 M 21.0000,8.0000 M 21.0000,6.0000 M 21.0000,4.0000 M 21.0000,2.0000 "/></g></svg>