<?xml version="1.0" encoding="UTF-8"?>
<!DOCTYPE svg PUBLIC "-//W3C//DTD SVG 1.1//EN"
    "http://www.w3.org/Graphics/SVG/1.1/DTD/svg11.dtd"><svg xmlns="http://www.w3.org/2000/svg" height="45.0000" stroke-opacity="1" viewBox="0 0 45 45" font-size="1" width="45.0000" xmlns:xlink="http://www.w3.org/1999/xlink" stroke="rgb(0,0,0)" version="1.1"><defs></defs><g stroke-linejoin="miter" stroke-opacity="1.0" fill-opacity="1.0" stroke="rgb(0,0,0)" stroke-width="0.0" fill="rgb(255,255,255)" stroke-linecap="butt" stroke-miterlimit="10.0"><path d="M 45.0000,45.0000 l -0.0000,-45.0000 h -45.0000 l -0.0000,45.0000 Z"/></g><g stroke-linejoin="miter" stroke-opacity="1.0" fill-opacity="1.0" stroke="rgb(0,0,0)" stroke-width="0.0" fill="rgb(0,0,0)" stroke-linecap="butt" stroke-miterlimit="10.0"><path d="M 5.0000,41.0000 l -0.0000,-1.0000 h -1.0000 l -0.0000,1.0000 ZM 5.0000,40.0000 l -0.0000,-1.0000 h -1.0000 l -0.0000,1.0000 ZM 5.0000,39.0000 l -0.0000,-1.0000 h -1.0000 l -0.0000,1.0000 ZM 5.0000,38.0000 l -0.0000,-1.0000 h -1.0000 l -0.0000,1.0000 ZM 5.0000,37.0000 l -0.0000,-1.0000 h -1.0000 l -0.0000,1.0000 ZM 5.0000,36.0000 l -0.0000,-1.0000 h -1.0000 l -0.0000,1.0000 ZM 5.0000,35.0000 l -0.0000,-1.0000 h -1.0000 l -0.0000,1.0000 ZM 5.0000,32.0000 l -0.0000,-1.0000 h -1.0000 l -0.0000,1.0000 ZM 5.0000,27.0000 l -0.0000,-1.0000 h -1.0000 l -0.0000,1.0000 ZM 5.0000,25.0000 l -0.0000,-1.0000 h -1.0000 l -0.0000,1.0000 ZM 5.0000,24.0000 l -0.0000,-1.0000 h -1.0000 l -0.0000,1.0000 ZM 5.0000,20.0000 l -0.0000,-1.0000 h -1.0000 l -0.0000,1.0000 ZM 5.0000,19.0000 l -0.0000,-1.0000 h -1.0000 l -0.0000,1.0000 ZM 5.0000,18.0000 l -0.0000,-1.0000 h -1.0000 l -0.0000,1.0000 ZM 5.0000,15.0000 l -0.0000,-1.0000 h -1.0000 l -0.0000,1.0000 ZM 5.0000,13.0000 l -0.0000,-1.0000 h -1.0000 l -0.0000,1.0000 ZM 5.0000,11.0000 l -0.0000,-1.0000 h -1.0000 l -0.0000,1.0000 ZM 5.0000,10.0000 l -0.0000,-1.0000 h -1.0000 l -0.0000,1.0000 ZM 5.0000,9.0000 l -0.0000,-1.0000 h -1.0000 l -0.0000,1.0000 ZM 5.0000,8.0000 l -0.0000,-1.0000 h -1.0000 l -0.0000,1.0000 ZM 5.0000,7.0000 l -0.0000,-1.0000 h -1.0000 l -0.0000,1.0000 ZM 5.0000,6.0000 l -0.0000,-1.0000 h -1.0000 l -0.0000,1.0000 ZM 5.0000,5.0000 l -0.0000,-1.0000 h -1.0000 l -0.0000,1.0000 ZM 6.0000,41.0000 l -0.0000,-1.0000 h -1.0000 l -0.0000,1.0000 ZM 6.0000,35.0000 l -0.0000,-1.0000 h -1.0000 l -0.0000,1.0000 ZM 6.0000,33.0000 l -0.0000,-1.0000 h -1.0000 l -0.0000,1.0000 ZM 6.0000,32.0000 l -0.0000,-1.0000 h -1.0000 l -0.0000,1.0000 ZM 6.0000,30.0000 l -0.0000,-1.0000 h -1.0000 l -0.0000,1.0000 ZM 6.0000,29.0000 l -0.0000,-1.0000 h -1.0000 l -0.0000,1.0000 ZM 6.0000,27.0000 l -0.0000,-1.0000 h -1.0000 l -0.0000,1.0000 ZM 6.0000,26.0000 l -0.0000,-1.0000 h -1.0000 l -0.0000,1.0000 ZM 6.0000,25.0000 l -0.0000,-1.0000 h -1.0000 l -0.0000,1.0000 ZM 6.0000,24.0000 l -0.0000,-1.0000 h -1.0000 l -0.0000,1.0000 ZM 6.0000,23.0000 l -0.0000,-1.0000 h -1.0000 l -0.0000,1.0000 ZM 6.0000,22.0000 l -0.0000,-1.0000 h -1.0000 l -0.0000,1.0000 ZM 6.0000,20.0000 l -0.0000,-1.0000 h -1.0000 l -0.0000,1.0000 ZM 6.0000,19.0000 l -0.0000,-1.0000 h -1.0000 l -0.0000,1.0000 ZM 6.0000,16.0000 l -0.0000,-1.0000 h -1.0000 l -0.0000,1.0000 ZM 6.0000,15.0000 l -0.0000,-1.0000 h -1.0000 l -0.0000,1.0000 ZM 6.0000,14.0000 l -0.0000,-1.0000 h -1.0000 l -0.0000,1.0000 ZM 6.0000,13.0000 l -0.0000,-1.0000 h -1.0000 l -0.0000,1.0000 ZM 6.0000,11.0000 l -0.0000,-1.0000 h -1.0000 l -0.0000,1.0000 ZM 6.0000,5.0000 l -0.0000,-1.0000 h -1.0000 l -0.0000,1.0000 ZM 7.0000,41.0000 l -0.0000,-1.0000 h -1.0000 l -0.0000,1.0000 ZM 7.0000,39.0000 l -0.0000,-1.0000 h -1.0000 l -0.0000,1.0000 ZM 7.0000,38.0000 l -0.0000,-1.0000 h -1.0000 l -0.0000,1.0000 ZM 7.0000,37.0000 l -0.0000,-1.0000 h -1.0000 l -0.0000,1.0000 ZM 7.0000,35.0000 l -0.0000,-1.0000 h -1.0000 l -0.0000,1.0000 ZM 7.0000,32.0000 l -0.0000,-1.0000 h -1.0000 l -0.0000,1.0000 ZM 7.0000,31.0000 l -0.0000,-1.0000 h -1.0000 l -0.0000,1.0000 ZM 7.0000,30.0000 l -0.0000,-1.0000 h -1.0000 l -0.0000,1.0000 ZM 7.0000,27.0000 l -0.0000,-1.0000 h -1.0000 l -0.0000,1.0000 ZM 7.0000,23.0000 l -0.0000,-1.0000 h -1.0000 l -0.0000,1.0000 ZM 7.0000,22.0000 l -0.0000,-1.0000 h -1.0000 l -0.0000,1.0000 ZM 7.0000,21.0000 l -0.0000,-1.0000 h -1.0000 l -0.0000,1.0000 ZM 7.0000,20.0000 l -0.0000,-1.0000 h -1.0000 l -0.0000,1.0000 ZM 7.0000,14.0000 l -0.0000,-1.0000 h -1.0000 l -0.0000,1.0000 ZM 7.0000,13.0000 l -0.0000,-1.0000 h -1.0000 l -0.0000,1.0000 ZM 7.0000,11.0000 l -0.0000,-1.0000 h -1.0000 l -0.0000,1.0000 ZM 7.0000,9.0000 l -0.0000,-1.0000 h -1.0000 l -0.0000,1.0000 ZM 7.0000,8.0000 l -0.0000,-1.0000 h -1.0000 l -0.0000,1.0000 ZM 7.0000,7.0000 l -0.0000,-1.0000 h -1.0000 l -0.0000,1.0000 ZM 7.0000,5.0000 l -0.0000,-1.0000 h -1.0000 l -0.0000,1.0000 ZM 8.0000,41.0000 l -0.0000,-1.0000 h -1.0000 l -0.0000,1.0000 ZM 8.0000,39.0000 l -0.0000,-1.0000 h -1.0000 l -0.0000,1.0000 ZM 8.0000,38.0000 l -0.0000,-1.0000 h -1.0000 l -0.0000,1.0000 ZM 8.0000,37.0000 l -0.0000,-1.0000 h -1.0000 l -0.0000,1.0000 ZM 8.0000,35.0000 l -0.0000,-1.0000 h -1.0000 l -0.0000,1.0000 ZM 8.0000,33.0000 l -0.0000,-1.0000 h -1.0000 l -0.0000,1.0000 ZM 8.0000,32.0000 l -0.0000,-1.0000 h -1.0000 l -0.0000,1.0000 ZM 8.0000,30.0000 l -0.0000,-1.0000 h -1.0000 l -0.0000,1.0000 ZM 8.0000,28.0000 l -0.0000,-1.0000 h -1.0000 l -0.0000,1.0000 ZM 8.0000,27.0000 l -0.0000,-1.0000 h -1.0000 l -0.0000,1.0000 ZM 8.0000,26.0000 l -0.0000,-1.0000 h -1.0000 l -0.0000,1.0000 ZM 8.0000,25.0000 l -0.0000,-1.0000 h -1.0000 l -0.0000,1.0000 ZM 8.0000,24.0000 l -0.0000,-1.0000 h -1.0000 l -0.0000,1.0000 ZM 8.0000,22.0000 l -0.0000,-1.0000 h -1.0000 l -0.0000,1.0000 ZM 8.0000,17.0000 l -0.0000,-1.0000 h -1.0000 l -0.0000,1.0000 ZM 8.0000,16.0000 l -0.0000,-1.0000 h -1.0000 l -0.0000,1.0000 ZM 8.0000,15.0000 l -0.0000,-1.0000 h -1.0000 l -0.0000,1.0000 ZM 8.0000,14.0000 l -0.0000,-1.0000 h -1.0000 l -0.0000,1.0000 ZM 8.0000,11.0000 l -0.0000,-1.0000 h -1.0000 l -0.0000,1.0000 ZM 8.0000,9.0000 l -0.0000,-1.0000 h -1.0000 l -0.0000,1.0000 ZM 8.0000,8.0000 l -0.0000,-1.0000 h -1.0000 l -0.0000,1.0000 ZM 8.0000,7.0000 l -0.0000,-1.0000 h -1.0000 l -0.0000,1.0000 ZM 8.0000,5.0000 l -0.0000,-1.0000 h -1.0000 l -0.0000,1.0000 ZM 9.0000,41.0000 l -0.0000,-1.0000 h -1.0000 l -0.0000,1.0000 ZM 9.0000,39.0000 l -0.0000,-1.0000 h -1.0000 l -0.0000,1.0000 ZM 9.0000,38.0000 l -0.0000,-1.0000 h -1.0000 l -0.0000,1.0000 ZM 9.0000,37.0000 l -0.0000,-1.0000 h -1.0000 l -0.0000,1.0000 ZM 9.0000,35.0000 l -0.0000,-1.0000 h -1.0000 l -0.0000,1.0000 ZM 9.0000,31.0000 l -0.0000,-1.0000 h -1.0000 l -0.0000,1.0000 ZM 9.0000,29.0000 l -0.0000,-1.0000 h -1.0000 l -0.0000,1.0000 ZM 9.0000,25.0000 l -0.0000,-1.0000 h -1.0000 l -0.0000,1.0000 ZM 9.0000,24.0000 l -0.0000,-1.0000 h -1.0000 l -0.0000,1.0000 ZM 9.0000,23.0000 l -0.0000,-1.0000 h -1.0000 l -0.0000,1.0000 ZM 9.0000,22.0000 l -0.0000,-1.0000 h -1.0000 l -0.0000,1.0000 ZM 9.0000,21.0000 l -0.0000,-1.0000 h -1.0000 l -0.0000,1.0000 ZM 9.0000,19.0000 l -0.0000,-1.0000 h -1.0000 l -0.0000,1.0000 ZM 9.0000,18.0000 l -0.0000,-1.0000 h -1.0000 l -0.0000,1.0000 ZM 9.0000,16.0000 l -0.0000,-1.0000 h -1.0000 l -0.0000,1.0000 ZM 9.0000,13.0000 l -0.0000,-1.0000 h -1.0000 l -0.0000,1.0000 ZM 9.0000,11.0000 l -0.0000,-1.0000 h -1.0000 l -0.0000,1.0000 ZM 9.0000,9.0000 l -0.0000,-1.0000 h -1.0000 l -0.0000,1.0000 ZM 9.0000,8.0000 l -0.0000,-1.0000 h -1.0000 l -0.0000,1.0000 ZM 9.0000,7.0000 l -0.0000,-1.0000 h -1.0000 l -0.0000,1.0000 ZM 9.0000,5.0000 l -0.0000,-1.0000 h -1.0000 l -0.0000,1.0000 ZM 10.0000,41.0000 l -0.0000,-1.0000 h -1.0000 l -0.0000,1.0000 ZM 10.0000,35.0000 l -0.0000,-1.0000 h -1.0000 l -0.0000,1.0000 ZM 10.0000,33.0000 l -0.0000,-1.0000 h -1.0000 l -0.0000,1.0000 ZM 10.0000,31.0000 l -0.0000,-1.0000 h -1.0000 l -0.0000,1.0000 ZM 10.0000,27.0000 l -0.0000,-1.0000 h -1.0000 l -0.0000,1.0000 ZM 10.0000,26.0000 l -0.0000,-1.0000 h -1.0000 l -0.0000,1.0000 ZM 10.0000,25.0000 l -0.0000,-1.0000 h -1.0000 l -0.0000,1.0000 ZM 10.0000,24.0000 l -0.0000,-1.0000 h -1.0000 l -0.0000,1.0000 ZM 10.0000,20.0000 l -0.0000,-1.0000 h -1.0000 l -0.0000,1.0000 ZM 10.0000,19.0000 l -0.0000,-1.0000 h -1.0000 l -0.0000,1.0000 ZM 10.0000,17.0000 l -0.0000,-1.0000 h -1.0000 l -0.0000,1.0000 ZM 10.0000,14.0000 l -0.0000,-1.0000 h -1.0000 l -0.0000,1.0000 ZM 10.0000,11.0000 l -0.0000,-1.0000 h -1.0000 l -0.0000,1.0000 ZM 10.0000,5.0000 l -0.0000,-1.0000 h -1.0000 l -0.0000,1.0000 ZM 11.0000,41.0000 l -0.0000,-1.0000 h -1.0000 l -0.0000,1.0000 ZM 11.0000,40.0000 l -0.0000,-1.0000 h -1.0000 l -0.0000,1.0000 ZM 11.0000,39.0000 l -0.0000,-1.0000 h -1.0000 l -0.0000,1.0000 ZM 11.0000,38.0000 l -0.0000,-1.0000 h -1.0000 l -0.0000,1.0000 ZM 11.0000,37.0000 l -0.0000,-1.0000 h -1.0000 l -0.0000,1.0000 ZM 11.0000,36.0000 l -0.0000,-1.0000 h -1.0000 l -0.0000,1.0000 ZM 11.0000,35.0000 l -0.0000,-1.0000 h -1.0000 l -0.0000,1.0000 ZM 11.0000,33.0000 l -0.0000,-1.0000 h -1.0000 l -0.0000,1.0000 ZM 11.0000,31.0000 l -0.0000,-1.0000 h -1.0000 l -0.0000,1.0000 ZM 11.0000,29.0000 l -0.0000,-1.0000 h -1.0000 l -0.0000,1.0000 ZM 11.0000,27.0000 l -0.0000,-1.0000 h -1.0000 l -0.0000,1.0000 ZM 11.0000,25.0000 l -0.0000,-1.0000 h -1.0000 l -0.0000,1.0000 ZM 11.0000,23.0000 l -0.0000,-1.0000 h -1.0000 l -0.0000,1.0000 ZM 11.0000,21.0000 l -0.0000,-1.0000 h -1.0000 l -0.0000,1.0000 ZM 11.0000,19.0000 l -0.0000,-1.0000 h -1.0000 l -0.0000,1.0000 ZM 11.0000,17.0000 l -0.0000,-1.0000 h -1.0000 l -0.0000,1.0000 ZM 11.0000,15.0000 l -0.0000,-1.0000 h -1.0000 l -0.0000,1.0000 ZM 11.0000,13.0000 l -0.0000,-1.0000 h -1.0000 l -0.0000,1.0000 ZM 11.0000,11.0000 l -0.0000,-1.0000 h -1.0000 l -0.0000,1.0000 ZM 11.0000,10.0000 l -0.0000,-1.0000 h -1.0000 l -0.0000,1.0000 ZM 11.0000,9.0000 l -0.0000,-1.0000 h -1.0000 l -0.0000,1.0000 ZM 11.0000,8.0000 l -0.0000,-1.0000 h -1.0000 l -0.0000,1.0000 ZM 11.0000,7.0000 l -0.0000,-1.0000 h -1.0000 l -0.0000,1.0000 ZM 11.0000,6.0000 l -0.0000,-1.0000 h -1.0000 l -0.0000,1.0000 ZM 11.0000,5.0000 l -0.0000,-1.0000 h -1.0000 l -0.0000,1.0000 ZM 12.0000,29.0000 l -0.0000,-1.0000 h -1.0000 l -0.0000,1.0000 ZM 12.0000,27.0000 l -0.0000,-1.0000 h -1.0000 l -0.0000,1.0000 ZM 12.0000,22.0000 l -0.0000,-1.0000 h -1.0000 l -0.0000,1.0000 ZM 12.0000,20.0000 l -0.0000,-1.0000 h -1.0000 l -0.0000,1.0000 ZM 12.0000,19.0000 l -0.0000,-1.0000 h -1.0000 l -0.0000,1.0000 ZM 12.0000,18.0000 l -0.0000,-1.0000 h -1.0000 l -0.0000,1.0000 ZM 12.0000,17.0000 l -0.0000,-1.0000 h -1.0000 l -0.0000,1.0000 ZM 12.0000,15.0000 l -0.0000,-1.0000 h -1.0000 l -0.0000,1.0000 ZM 12.0000,13.0000 l -0.0000,-1.0000 h -1.0000 l -0.0000,1.0000 ZM 13.0000,41.0000 l -0.0000,-1.0000 h -1.0000 l -0.0000,1.0000 ZM 13.0000,40.0000 l -0.0000,-1.0000 h -1.0000 l -0.0000,1.0000 ZM 13.0000,39.0000 l -0.0000,-1.0000 h -1.0000 l -0.0000,1.0000 ZM 13.0000,38.0000 l -0.0000,-1.0000 h -1.0000 l -0.0000,1.0000 ZM 13.0000,37.0000 l -0.0000,-1.0000 h -1.0000 l -0.0000,1.0000 ZM 13.0000,35.0000 l -0.0000,-1.0000 h -1.0000 l -0.0000,1.0000 ZM 13.0000,34.0000 l -0.0000,-1.0000 h -1.0000 l -0.0000,1.0000 ZM 13.0000,33.0000 l -0.0000,-1.0000 h -1.0000 l -0.0000,1.0000 ZM 13.0000,32.0000 l -0.0000,-1.0000 h -1.0000 l -0.0000,1.0000 ZM 13.0000,31.0000 l -0.0000,-1.0000 h -1.0000 l -0.0000,1.0000 ZM 13.0000,29.0000 l -0.0000,-1.0000 h -1.0000 l -0.0000,1.0000 ZM 13.0000,28.0000 l -0.0000,-1.0000 h -1.0000 l -0.0000,1.0000 ZM 13.0000,27.0000 l -0.0000,-1.0000 h -1.0000 l -0.0000,1.0000 ZM 13.0000,26.0000 l -0.0000,-1.0000 h -1.0000 l -0.0000,1.0000 ZM 13.0000,25.0000 l -0.0000,-1.0000 h -1.0000 l -0.0000,1.0000 ZM 13.0000,24.0000 l -0.0000,-1.0000 h -1.0000 l -0.0000,1.0000 ZM 13.0000,23.0000 l -0.0000,-1.0000 h -1.0000 l -0.0000,1.0000 ZM 13.0000,21.0000 l -0.0000,-1.0000 h -1.0000 l -0.0000,1.0000 ZM 13.0000,16.0000 l -0.0000,-1.0000 h -1.0000 l -0.0000,1.0000 ZM 13.0000,15.0000 l -0.0000,-1.0000 h -1.0000 l -0.0000,1.0000 ZM 13.0000,14.0000 l -0.0000,-1.0000 h -1.0000 l -0.0000,1.0000 ZM 13.0000,13.0000 l -0.0000,-1.0000 h -1.0000 l -0.0000,1.0000 ZM 13.0000,12.0000 l -0.0000,-1.0000 h -1.0000 l -0.0000,1.0000 ZM 13.0000,10.0000 l -0.0000,-1.0000 h -1.0000 l -0.0000,1.0000 ZM 13.0000,8.0000 l -0.0000,-1.0000 h -1.0000 l -0.0000,1.0000 ZM 13.0000,6.0000 l -0.0000,-1.0000 h -1.0000 l -0.0000,1.0000 ZM 14.0000,39.0000 l -0.0000,-1.0000 h -1.0000 l -0.0000,1.0000 ZM 14.0000,38.0000 l -0.0000,-1.0000 h -1.0000 l -0.0000,1.0000 ZM 14.0000,27.0000 l -0.0000,-1.0000 h -1.0000 l -0.0000,1.0000 ZM 14.0000,25.0000 l -0.0000,-1.0000 h -1.0000 l -0.0000,1.0000 ZM 14.0000,24.0000 l -0.0000,-1.0000 h -1.0000 l -0.0000,1.0000 ZM 14.0000,22.0000 l -0.0000,-1.0000 h -1.0000 l -0.0000,1.0000 ZM 14.0000,21.0000 l -0.0000,-1.0000 h -1.0000 l -0.0000,1.0000 ZM 14.0000,20.0000 l -0.0000,-1.0000 h -1.0000 l -0.0000,1.0000 ZM 14.0000,18.0000 l -0.0000,-1.0000 h -1.0000 l -0.0000,1.0000 ZM 14.0000,13.0000 l -0.0000,-1.0000 h -1.0000 l -0.0000,1.0000 ZM 14.0000,11.0000 l -0.0000,-1.0000 h -1.0000 l -0.0000,1.0000 ZM 14.0000,10.0000 l -0.0000,-1.0000 h -1.0000 l -0.0000,1.0000 ZM 14.0000,6.0000 l -0.0000,-1.0000 h -1.0000 l -0.0000,1.0000 ZM 15.0000,40.0000 l -0.0000,-1.0000 h -1.0000 l -0.0000,1.0000 ZM 15.0000,37.0000 l -0.0000,-1.0000 h -1.0000 l -0.0000,1.0000 ZM 15.0000,36.0000 l -0.0000,-1.0000 h -1.0000 l -0.0000,1.0000 ZM 15.0000,35.0000 l -0.0000,-1.0000 h -1.0000 l -0.0000,1.0000 ZM 15.0000,33.0000 l -0.0000,-1.0000 h -1.0000 l -0.0000,1.0000 ZM 15.0000,32.0000 l -0.0000,-1.0000 h -1.0000 l -0.0000,1.0000 ZM 15.0000,31.0000 l -0.0000,-1.0000 h -1.0000 l -0.0000,1.0000 ZM 15.0000,30.0000 l -0.0000,-1.0000 h -1.0000 l -0.0000,1.0000 ZM 15.0000,29.0000 l -0.0000,-1.0000 h -1.0000 l -0.0000,1.0000 ZM 15.0000,28.0000 l -0.0000,-1.0000 h -1.0000 l -0.0000,1.0000 ZM 15.0000,26.0000 l -0.0000,-1.0000 h -1.0000 l -0.0000,1.0000 ZM 15.0000,25.0000 l -0.0000,-1.0000 h -1.0000 l -0.0000,1.0000 ZM 15.0000,23.0000 l -0.0000,-1.0000 h -1.0000 l -0.0000,1.0000 ZM 15.0000,21.0000 l -0.0000,-1.0000 h -1.0000 l -0.0000,1.0000 ZM 15.0000,20.0000 l -0.0000,-1.0000 h -1.0000 l -0.0000,1.0000 ZM 15.0000,15.0000 l -0.0000,-1.0000 h -1.0000 l -0.0000,1.0000 ZM 15.0000,14.0000 l -0.0000,-1.0000 h -1.0000 l -0.0000,1.0000 ZM 15.0000,13.0000 l -0.0000,-1.0000 h -1.0000 l -0.0000,1.0000 ZM 15.0000,11.0000 l -0.0000,-1.0000 h -1.0000 l -0.0000,1.0000 ZM 15.0000,8.0000 l -0.0000,-1.0000 h -1.0000 l -0.0000,1.0000 ZM 15.0000,6.0000 l -0.0000,-1.0000 h -1.0000 l -0.0000,1.0000 ZM 15.0000,5.0000 l -0.0000,-1.0000 h -1.0000 l -0.0000,1.0000 ZM 16.0000,41.0000 l -0.0000,-1.0000 h -1.0000 l -0.0000,1.0000 ZM 16.0000,39.0000 l -0.0000,-1.0000 h -1.0000 l -0.0000,1.0000 ZM 16.0000,38.0000 l -0.0000,-1.0000 h -1.0000 l -0.0000,1.0000 ZM 16.0000,36.0000 l -0.0000,-1.0000 h -1.0000 l -0.0000,1.0000 ZM 16.0000,34.0000 l -0.0000,-1.0000 h -1.0000 l -0.0000,1.0000 ZM 16.0000,33.0000 l -0.0000,-1.0000 h -1.0000 l -0.0000,1.0000 ZM 16.0000,32.0000 l -0.0000,-1.0000 h -1.0000 l -0.0000,1.0000 ZM 16.0000,30.0000 l -0.0000,-1.0000 h -1.0000 l -0.0000,1.0000 ZM 16.0000,26.0000 l -0.0000,-1.0000 h -1.0000 l -0.0000,1.0000 ZM 16.0000,22.0000 l -0.0000,-1.0000 h -1.0000 l -0.0000,1.0000 ZM 16.0000,21.0000 l -0.0000,-1.0000 h -1.0000 l -0.0000,1.0000 ZM 16.0000,20.0000 l -0.0000,-1.0000 h -1.0000 l -0.0000,1.0000 ZM 16.0000,19.0000 l -0.0000,-1.0000 h -1.0000 l -0.0000,1.0000 ZM 16.0000,18.0000 l -0.0000,-1.0000 h -1.0000 l -0.0000,1.0000 ZM 16.0000,17.0000 l -0.0000,-1.0000 h -1.0000 l -0.0000,1.0000 ZM 16.0000,15.0000 l -0.0000,-1.0000 h -1.0000 l -0.0000,1.0000 ZM 16.0000,14.0000 l -0.0000,-1.0000 h -1.0000 l -0.0000,1.0000 ZM 16.0000,12.0000 l -0.0000,-1.0000 h -1.0000 l -0.0000,1.0000 ZM 16.0000,11.0000 l -0.0000,-1.0000 h -1.0000 l -0.0000,1.0000 ZM 16.0000,10.0000 l -0.0000,-1.0000 h -1.0000 l -0.0000,1.0000 ZM 16.0000,6.0000 l -0.0000,-1.0000 h -1.0000 l -0.0000,1.0000 ZM 16.0000,5.0000 l -0.0000,-1.0000 h -1.0000 l -0.0000,1.0000 ZM 17.0000,41.0000 l -0.0000,-1.0000 h -1.0000 l -0.0000,1.0000 ZM 17.0000,37.0000 l -0.0000,-1.0000 h -1.0000 l -0.0000,1.0000 ZM 17.0000,35.0000 l -0.0000,-1.0000 h -1.0000 l -0.0000,1.0000 ZM 17.0000,34.0000 l -0.0000,-1.0000 h -1.0000 l -0.0000,1.0000 ZM 17.0000,33.0000 l -0.0000,-1.0000 h -1.0000 l -0.0000,1.0000 ZM 17.0000,30.0000 l -0.0000,-1.0000 h -1.0000 l -0.0000,1.0000 ZM 17.0000,28.0000 l -0.0000,-1.0000 h -1.0000 l -0.0000,1.0000 ZM 17.0000,24.0000 l -0.0000,-1.0000 h -1.0000 l -0.0000,1.0000 ZM 17.0000,23.0000 l -0.0000,-1.0000 h -1.0000 l -0.0000,1.0000 ZM 17.0000,22.0000 l -0.0000,-1.0000 h -1.0000 l -0.0000,1.0000 ZM 17.0000,17.0000 l -0.0000,-1.0000 h -1.0000 l -0.0000,1.0000 ZM 17.0000,16.0000 l -0.0000,-1.0000 h -1.0000 l -0.0000,1.0000 ZM 17.0000,15.0000 l -0.0000,-1.0000 h -1.0000 l -0.0000,1.0000 ZM 17.0000,12.0000 l -0.0000,-1.0000 h -1.0000 l -0.0000,1.0000 ZM 17.0000,11.0000 l -0.0000,-1.0000 h -1.0000 l -0.0000,1.0000 ZM 17.0000,10.0000 l -0.0000,-1.0000 h -1.0000 l -0.0000,1.0000 ZM 17.0000,8.0000 l -0.0000,-1.0000 h -1.0000 l -0.0000,1.0000 ZM 17.0000,7.0000 l -0.0000,-1.0000 h -1.0000 l -0.0000,1.0000 ZM 17.0000,6.0000 l -0.0000,-1.0000 h -1.0000 l -0.0000,1.0000 ZM 17.0000,5.0000 l -0.0000,-1.0000 h -1.0000 l -0.0000,1.0000 ZM 18.0000,41.0000 l -0.0000,-1.0000 h -1.0000 l -0.0000,1.0000 ZM 18.0000,40.0000 l -0.0000,-1.0000 h -1.0000 l -0.0000,1.0000 ZM 18.0000,38.0000 l -0.0000,-1.0000 h -1.0000 l -0.0000,1.0000 ZM 18.0000,37.0000 l -0.0000,-1.0000 h -1.0000 l -0.0000,1.0000 ZM 18.0000,36.0000 l -0.0000,-1.0000 h -1.0000 l -0.0000,1.0000 ZM 18.0000,34.0000 l -0.0000,-1.0000 h -1.0000 l -0.0000,1.0000 ZM 18.0000,32.0000 l -0.0000,-1.0000 h -1.0000 l -0.0000,1.0000 ZM 18.0000,31.0000 l -0.0000,-1.0000 h -1.0000 l -0.0000,1.0000 ZM 18.0000,29.0000 l -0.0000,-1.0000 h -1.0000 l -0.0000,1.0000 ZM 18.0000,28.0000 l -0.0000,-1.0000 h -1.0000 l -0.0000,1.0000 ZM 18.0000,27.0000 l -0.0000,-1.0000 h -1.0000 l -0.0000,1.0000 ZM 18.0000,25.0000 l -0.0000,-1.0000 h -1.0000 l -0.0000,1.0000 ZM 18.0000,24.0000 l -0.0000,-1.0000 h -1.0000 l -0.0000,1.0000 ZM 18.0000,21.0000 l -0.0000,-1.0000 h -1.0000 l -0.0000,1.0000 ZM 18.0000,19.0000 l -0.0000,-1.0000 h -1.0000 l -0.0000,1.0000 ZM 18.0000,18.0000 l -0.0000,-1.0000 h -1.0000 l -0.0000,1.0000 ZM 18.0000,15.0000 l -0.0000,-1.0000 h -1.0000 l -0.0000,1.0000 ZM 18.0000,13.0000 l -0.0000,-1.0000 h -1.0000 l -0.0000,1.0000 ZM 18.0000,12.0000 l -0.0000,-1.0000 h -1.0000 l -0.0000,1.0000 ZM 18.0000,11.0000 l -0.0000,-1.0000 h -1.0000 l -0.0000,1.0000 ZM 18.0000,10.0000 l -0.0000,-1.0000 h -1.0000 l -0.0000,1.0000 ZM 18.0000,8.0000 l -0.0000,-1.0000 h -1.0000 l -0.0000,1.0000 ZM 18.0000,7.0000 l -0.0000,-1.0000 h -1.0000 l -0.0000,1.0000 ZM 18.0000,6.0000 l -0.0000,-1.0000 h -1.0000 l -0.0000,1.0000 ZM 19.0000,40.0000 l -0.0000,-1.0000 h -1.0000 l -0.0000,1.0000 ZM 19.0000,38.0000 l -0.0000,-1.0000 h -1.0000 l -0.0000,1.0000 ZM 19.0000,37.0000 l -0.0000,-1.0000 h -1.0000 l -0.0000,1.0000 ZM 19.0000,36.0000 l -0.0000,-1.0000 h -1.0000 l -0.0000,1.0000 ZM 19.0000,35.0000 l -0.0000,-1.0000 h -1.0000 l -0.0000,1.0000 ZM 19.0000,34.0000 l -0.0000,-1.0000 h -1.0000 l -0.0000,1.0000 ZM 19.0000,31.0000 l -0.0000,-1.0000 h -1.0000 l -0.0000,1.0000 ZM 19.0000,27.0000 l -0.0000,-1.0000 h -1.0000 l -0.0000,1.0000 ZM 19.0000,26.0000 l -0.0000,-1.0000 h -1.0000 l -0.0000,1.0000 ZM 19.0000,24.0000 l -0.0000,-1.0000 h -1.0000 l -0.0000,1.0000 ZM 19.0000,23.0000 l -0.0000,-1.0000 h -1.0000 l -0.0000,1.0000 ZM 19.0000,20.0000 l -0.0000,-1.0000 h -1.0000 l -0.0000,1.0000 ZM 19.0000,19.0000 l -0.0000,-1.0000 h -1.0000 l -0.0000,1.0000 ZM 19.0000,16.0000 l -0.0000,-1.0000 h -1.0000 l -0.0000,1.0000 ZM 19.0000,15.0000 l -0.0000,-1.0000 h -1.0000 l -0.0000,1.0000 ZM 19.0000,14.0000 l -0.0000,-1.0000 h -1.0000 l -0.0000,1.0000 ZM 19.0000,12.0000 l -0.0000,-1.0000 h -1.0000 l -0.0000,1.0000 ZM 19.0000,11.0000 l -0.0000,-1.0000 h -1.0000 l -0.0000,1.0000 ZM 19.0000,9.0000 l -0.0000,-1.0000 h -1.0000 l -0.0000,1.0000 ZM 19.0000,8.0000 l -0.0000,-1.0000 h -1.0000 l -0.0000,1.0000 ZM 19.0000,6.0000 l -0.0000,-1.0000 h -1.0000 l -0.0000,1.0000 ZM 19.0000,5.0000 l -0.0000,-1.0000 h -1.0000 l -0.0000,1.0000 ZM 20.0000,40.0000 l -0.0000,-1.0000 h -1.0000 l -0.0000,1.0000 ZM 20.0000,39.0000 l -0.0000,-1.0000 h -1.0000 l -0.0000,1.0000 ZM 20.0000,38.0000 l -0.0000,-1.0000 h -1.0000 l -0.0000,1.0000 ZM 20.0000,37.0000 l -0.0000,-1.0000 h -1.0000 l -0.0000,1.0000 ZM 20.0000,36.0000 l -0.0000,-1.0000 h -1.0000 l -0.0000,1.0000 ZM 20.0000,34.0000 l -0.0000,-1.0000 h -1.0000 l -0.0000,1.0000 ZM 20.0000,32.0000 l -0.0000,-1.0000 h -1.0000 l -0.0000,1.0000 ZM 20.0000,29.0000 l -0.0000,-1.0000 h -1.0000 l -0.0000,1.0000 ZM 20.0000,27.0000 l -0.0000,-1.0000 h -1.0000 l -0.0000,1.0000 ZM 20.0000,25.0000 l -0.0000,-1.0000 h -1.0000 l -0.0000,1.0000 ZM 20.0000,23.0000 l -0.0000,-1.0000 h -1.0000 l -0.0000,1.0000 ZM 20.0000,21.0000 l -0.0000,-1.0000 h -1.0000 l -0.0000,1.0000 ZM 20.0000,20.0000 l -0.0000,-1.0000 h -1.0000 l -0.0000,1.0000 ZM 20.0000,15.0000 l -0.0000,-1.0000 h -1.0000 l -0.0000,1.0000 ZM 20.0000,14.0000 l -0.0000,-1.0000 h -1.0000 l -0.0000,1.0000 ZM 20.0000,13.0000 l -0.0000,-1.0000 h -1.0000 l -0.0000,1.0000 ZM 20.0000,12.0000 l -0.0000,-1.0000 h -1.0000 l -0.0000,1.0000 ZM 20.0000,11.0000 l -0.0000,-1.0000 h -1.0000 l -0.0000,1.0000 ZM 20.0000,10.0000 l -0.0000,-1.0000 h -1.0000 l -0.0000,1.0000 ZM 20.0000,8.0000 l -0.0000,-1.0000 h -1.0000 l -0.0000,1.0000 ZM 20.0000,6.0000 l -0.0000,-1.0000 h -1.0000 l -0.0000,1.0000 ZM 20.0000,5.0000 l -0.0000,-1.0000 h -1.0000 l -0.0000,1.0000 ZM 21.0000,39.0000 l -0.0000,-1.0000 h -1.0000 l -0.0000,1.0000 ZM 21.0000,38.0000 l -0.0000,-1.0000 h -1.0000 l -0.0000,1.0000 ZM 21.0000,37.0000 l -0.0000,-1.0000 h -1.0000 l -0.0000,1.0000 ZM 21.0000,36.0000 l -0.0000,-1.0000 h -1.0000 l -0.0000,1.0000 ZM 21.0000,35.0000 l -0.0000,-1.0000 h -1.0000 l -0.0000,1.0000 ZM 21.0000,31.0000 l -0.0000,-1.0000 h -1.0000 l -0.0000,1.0000 ZM 21.0000,29.0000 l -0.0000,-1.0000 h -1.0000 l -0.0000,1.0000 ZM 21.0000,27.0000 l -0.0000,-1.0000 h -1.0000 l -0.0000,1.0000 ZM 21.0000,26.0000 l -0.0000,-1.0000 h -1.0000 l -0.0000,1.0000 ZM 21.0000,23.0000 l -0.0000,-1.0000 h -1.0000 l -0.0000,1.0000 ZM 21.0000,22.0000 l -0.0000,-1.0000 h -1.0000 l -0.0000,1.0000 ZM 21.0000,20.0000 l -0.0000,-1.0000 h -1.0000 l -0.0000,1.0000 ZM 21.0000,17.0000 l -0.0000,-1.0000 h -1.0000 l -0.0000,1.0000 ZM 21.0000,16.0000 l -0.0000,-1.0000 h -1.0000 l -0.0000,1.0000 ZM 21.0000,15.0000 l -0.0000,-1.0000 h -1.0000 l -0.0000,1.0000 ZM 21.0000,12.0000 l -0.0000,-1.0000 h -1.0000 l -0.0000,1.0000 ZM 21.0000,11.0000 l -0.0000,-1.0000 h -1.0000 l -0.0000,1.0000 ZM 21.0000,10.0000 l -0.0000,-1.0000 h -1.0000 l -0.0000,1.0000 ZM 21.0000,7.0000 l -0.0000,-1.0000 h -1.0000 l -0.0000,1.0000 ZM 21.0000,5.0000 l -0.0000,-1.0000 h -1.0000 l -0.0000,1.0000 ZM 22.0000,41.0000 l -0.0000,-1.0000 h -1.0000 l -0.0000,1.0000 ZM 22.0000,40.0000 l -0.0000,-1.0000 h -1.0000 l -0.0000,1.0000 ZM 22.0000,36.0000 l -0.0000,-1.0000 h -1.0000 l -0.0000,1.0000 ZM 22.0000,33.0000 l -0.0000,-1.0000 h -1.0000 l -0.0000,1.0000 ZM 22.0000,32.0000 l -0.0000,-1.0000 h -1.0000 l -0.0000,1.0000 ZM 22.0000,28.0000 l -0.0000,-1.0000 h -1.0000 l -0.0000,1.0000 ZM 22.0000,21.0000 l -0.0000,-1.0000 h -1.0000 l -0.0000,1.0000 ZM 22.0000,19.0000 l -0.0000,-1.0000 h -1.0000 l -0.0000,1.0000 ZM 22.0000,18.0000 l -0.0000,-1.0000 h -1.0000 l -0.0000,1.0000 ZM 22.0000,15.0000 l -0.0000,-1.0000 h -1.0000 l -0.0000,1.0000 ZM 22.0000,13.0000 l -0.0000,-1.0000 h -1.0000 l -0.0000,1.0000 ZM 22.0000,12.0000 l -0.0000,-1.0000 h -1.0000 l -0.0000,1.0000 ZM 22.0000,11.0000 l -0.0000,-1.0000 h -1.0000 l -0.0000,1.0000 ZM 22.0000,10.0000 l -0.0000,-1.0000 h -1.0000 l -0.0000,1.0000 ZM 22.0000,8.0000 l -0.0000,-1.0000 h -1.0000 l -0.0000,1.0000 ZM 22.0000,7.0000 l -0.0000,-1.0000 h -1.0000 l -0.0000,1.0000 ZM 23.0000,41.0000 l -0.0000,-1.0000 h -1.0000 l -0.0000,1.0000 ZM 23.0000,40.0000 l -0.0000,-1.0000 h -1.0000 l -0.0000,1.0000 ZM 23.0000,39.0000 l -0.0000,-1.0000 h -1.0000 l -0.0000,1.0000 ZM 23.0000,38.0000 l -0.0000,-1.0000 h -1.0000 l -0.0000,1.0000 ZM 23.0000,37.0000 l -0.0000,-1.0000 h -1.0000 l -0.0000,1.0000 ZM 23.0000,35.0000 l -0.0000,-1.0000 h -1.0000 l -0.0000,1.0000 ZM 23.0000,30.0000 l -0.0000,-1.0000 h -1.0000 l -0.0000,1.0000 ZM 23.0000,29.0000 l -0.0000,-1.0000 h -1.0000 l -0.0000,1.0000 ZM 23.0000,27.0000 l -0.0000,-1.0000 h -1.0000 l -0.0000,1.0000 ZM 23.0000,26.0000 l -0.0000,-1.0000 h -1.0000 l -0.0000,1.0000 ZM 23.0000,25.0000 l -0.0000,-1.0000 h -1.0000 l -0.0000,1.0000 ZM 23.0000,24.0000 l -0.0000,-1.0000 h -1.0000 l -0.0000,1.0000 ZM 23.0000,15.0000 l -0.0000,-1.0000 h -1.0000 l -0.0000,1.0000 ZM 23.0000,14.0000 l -0.0000,-1.0000 h -1.0000 l -0.0000,1.0000 ZM 23.0000,12.0000 l -0.0000,-1.0000 h -1.0000 l -0.0000,1.0000 ZM 23.0000,11.0000 l -0.0000,-1.0000 h -1.0000 l -0.0000,1.0000 ZM 23.0000,8.0000 l -0.0000,-1.0000 h -1.0000 l -0.0000,1.0000 ZM 23.0000,7.0000 l -0.0000,-1.0000 h -1.0000 l -0.0000,1.0000 ZM 23.0000,6.0000 l -0.0000,-1.0000 h -1.0000 l -0.0000,1.0000 ZM 23.0000,5.0000 l -0.0000,-1.0000 h -1.0000 l -0.0000,1.0000 ZM 24.0000,41.0000 l -0.0000,-1.0000 h -1.0000 l -0.0000,1.0000 ZM 24.0000,37.0000 l -0.0000,-1.0000 h -1.0000 l -0.0000,1.0000 ZM 24.0000,36.0000 l -0.0000,-1.0000 h -1.0000 l -0.0000,1.0000 ZM 24.0000,34.0000 l -0.0000,-1.0000 h -1.0000 l -0.0000,1.0000 ZM 24.0000,32.0000 l -0.0000,-1.0000 h -1.0000 l -0.0000,1.0000 ZM 24.0000,31.0000 l -0.0000,-1.0000 h -1.0000 l -0.0000,1.0000 ZM 24.0000,30.0000 l -0.0000,-1.0000 h -1.0000 l -0.0000,1.0000 ZM 24.0000,23.0000 l -0.0000,-1.0000 h -1.0000 l -0.0000,1.0000 ZM 24.0000,22.0000 l -0.0000,-1.0000 h -1.0000 l -0.0000,1.0000 ZM 24.0000,20.0000 l -0.0000,-1.0000 h -1.0000 l -0.0000,1.0000 ZM 24.0000,18.0000 l -0.0000,-1.0000 h -1.0000 l -0.0000,1.0000 ZM 24.0000,17.0000 l -0.0000,-1.0000 h -1.0000 l -0.0000,1.0000 ZM 24.0000,14.0000 l -0.0000,-1.0000 h -1.0000 l -0.0000,1.0000 ZM 24.0000,11.0000 l -0.0000,-1.0000 h -1.0000 l -0.0000,1.0000 ZM 24.0000,10.0000 l -0.0000,-1.0000 h -1.0000 l -0.0000,1.0000 ZM 24.0000,9.0000 l -0.0000,-1.0000 h -1.0000 l -0.0000,1.0000 ZM 24.0000,8.0000 l -0.0000,-1.0000 h -1.0000 l -0.0000,1.0000 ZM 24.0000,5.0000 l -0.0000,-1.0000 h -1.0000 l -0.0000,1.0000 ZM 25.0000,41.0000 l -0.0000,-1.0000 h -1.0000 l -0.0000,1.0000 ZM 25.0000,39.0000 l -0.0000,-1.0000 h -1.0000 l -0.0000,1.0000 ZM 25.0000,38.0000 l -0.0000,-1.0000 h -1.0000 l -0.0000,1.0000 ZM 25.0000,37.0000 l -0.0000,-1.0000 h -1.0000 l -0.0000,1.0000 ZM 25.0000,36.0000 l -0.0000,-1.0000 h -1.0000 l -0.0000,1.0000 ZM 25.0000,35.0000 l -0.0000,-1.0000 h -1.0000 l -0.0000,1.0000 ZM 25.0000,34.0000 l -0.0000,-1.0000 h -1.0000 l -0.0000,1.0000 ZM 25.0000,33.0000 l -0.0000,-1.0000 h -1.0000 l -0.0000,1.0000 ZM 25.0000,32.0000 l -0.0000,-1.0000 h -1.0000 l -0.0000,1.0000 ZM 25.0000,30.0000 l -0.0000,-1.0000 h -1.0000 l -0.0000,1.0000 ZM 25.0000,27.0000 l -0.0000,-1.0000 h -1.0000 l -0.0000,1.0000 ZM 25.0000,21.0000 l -0.0000,-1.0000 h -1.0000 l -0.0000,1.0000 ZM 25.0000,20.0000 l -0.0000,-1.0000 h -1.0000 l -0.0000,1.0000 ZM 25.0000,16.0000 l -0.0000,-1.0000 h -1.0000 l -0.0000,1.0000 ZM 25.0000,15.0000 l -0.0000,-1.0000 h -1.0000 l -0.0000,1.0000 ZM 25.0000,14.0000 l -0.0000,-1.0000 h -1.0000 l -0.0000,1.0000 ZM 25.0000,12.0000 l -0.0000,-1.0000 h -1.0000 l -0.0000,1.0000 ZM 25.0000,11.0000 l -0.0000,-1.0000 h -1.0000 l -0.0000,1.0000 ZM 25.0000,8.0000 l -0.0000,-1.0000 h -1.0000 l -0.0000,1.0000 ZM 25.0000,7.0000 l -0.0000,-1.0000 h -1.0000 l -0.0000,1.0000 ZM 25.0000,5.0000 l -0.0000,-1.0000 h -1.0000 l -0.0000,1.0000 ZM 26.0000,41.0000 l -0.0000,-1.0000 h -1.0000 l -0.0000,1.0000 ZM 26.0000,40.0000 l -0.0000,-1.0000 h -1.0000 l -0.0000,1.0000 ZM 26.0000,39.0000 l -0.0000,-1.0000 h -1.0000 l -0.0000,1.0000 ZM 26.0000,34.0000 l -0.0000,-1.0000 h -1.0000 l -0.0000,1.0000 ZM 26.0000,33.0000 l -0.0000,-1.0000 h -1.0000 l -0.0000,1.0000 ZM 26.0000,31.0000 l -0.0000,-1.0000 h -1.0000 l -0.0000,1.0000 ZM 26.0000,29.0000 l -0.0000,-1.0000 h -1.0000 l -0.0000,1.0000 ZM 26.0000,27.0000 l -0.0000,-1.0000 h -1.0000 l -0.0000,1.0000 ZM 26.0000,26.0000 l -0.0000,-1.0000 h -1.0000 l -0.0000,1.0000 ZM 26.0000,24.0000 l -0.0000,-1.0000 h -1.0000 l -0.0000,1.0000 ZM 26.0000,23.0000 l -0.0000,-1.0000 h -1.0000 l -0.0000,1.0000 ZM 26.0000,22.0000 l -0.0000,-1.0000 h -1.0000 l -0.0000,1.0000 ZM 26.0000,19.0000 l -0.0000,-1.0000 h -1.0000 l -0.0000,1.0000 ZM 26.0000,18.0000 l -0.0000,-1.0000 h -1.0000 l -0.0000,1.0000 ZM 26.0000,14.0000 l -0.0000,-1.0000 h -1.0000 l -0.0000,1.0000 ZM 26.0000,13.0000 l -0.0000,-1.0000 h -1.0000 l -0.0000,1.0000 ZM 26.0000,11.0000 l -0.0000,-1.0000 h -1.0000 l -0.0000,1.0000 ZM 26.0000,10.0000 l -0.0000,-1.0000 h -1.0000 l -0.0000,1.0000 ZM 26.0000,7.0000 l -0.0000,-1.0000 h -1.0000 l -0.0000,1.0000 ZM 26.0000,6.0000 l -0.0000,-1.0000 h -1.0000 l -0.0000,1.0000 ZM 27.0000,41.0000 l -0.0000,-1.0000 h -1.0000 l -0.0000,1.0000 ZM 27.0000,40.0000 l -0.0000,-1.0000 h -1.0000 l -0.0000,1.0000 ZM 27.0000,37.0000 l -0.0000,-1.0000 h -1.0000 l -0.0000,1.0000 ZM 27.0000,36.0000 l -0.0000,-1.0000 h -1.0000 l -0.0000,1.0000 ZM 27.0000,35.0000 l -0.0000,-1.0000 h -1.0000 l -0.0000,1.0000 ZM 27.0000,34.0000 l -0.0000,-1.0000 h -1.0000 l -0.0000,1.0000 ZM 27.0000,33.0000 l -0.0000,-1.0000 h -1.0000 l -0.0000,1.0000 ZM 27.0000,28.0000 l -0.0000,-1.0000 h -1.0000 l -0.0000,1.0000 ZM 27.0000,27.0000 l -0.0000,-1.0000 h -1.0000 l -0.0000,1.0000 ZM 27.0000,26.0000 l -0.0000,-1.0000 h -1.0000 l -0.0000,1.0000 ZM 27.0000,24.0000 l -0.0000,-1.0000 h -1.0000 l -0.0000,1.0000 ZM 27.0000,23.0000 l -0.0000,-1.0000 h -1.0000 l -0.0000,1.0000 ZM 27.0000,15.0000 l -0.0000,-1.0000 h -1.0000 l -0.0000,1.0000 ZM 27.0000,14.0000 l -0.0000,-1.0000 h -1.0000 l -0.0000,1.0000 ZM 27.0000,13.0000 l -0.0000,-1.0000 h -1.0000 l -0.0000,1.0000 ZM 27.0000,10.0000 l -0.0000,-1.0000 h -1.0000 l -0.0000,1.0000 ZM 27.0000,9.0000 l -0.0000,-1.0000 h -1.0000 l -0.0000,1.0000 ZM 27.0000,7.0000 l -0.0000,-1.0000 h -1.0000 l -0.0000,1.0000 ZM 27.0000,6.0000 l -0.0000,-1.0000 h -1.0000 l -0.0000,1.0000 ZM 27.0000,5.0000 l -0.0000,-1.0000 h -1.0000 l -0.0000,1.0000 ZM 28.0000,40.0000 l -0.0000,-1.0000 h -1.0000 l -0.0000,1.0000 ZM 28.0000,31.0000 l -0.0000,-1.0000 h -1.0000 l -0.0000,1.0000 ZM 28.0000,29.0000 l -0.0000,-1.0000 h -1.0000 l -0.0000,1.0000 ZM 28.0000,26.0000 l -0.0000,-1.0000 h -1.0000 l -0.0000,1.0000 ZM 28.0000,25.0000 l -0.0000,-1.0000 h -1.0000 l -0.0000,1.0000 ZM 28.0000,23.0000 l -0.0000,-1.0000 h -1.0000 l -0.0000,1.0000 ZM 28.0000,22.0000 l -0.0000,-1.0000 h -1.0000 l -0.0000,1.0000 ZM 28.0000,20.0000 l -0.0000,-1.0000 h -1.0000 l -0.0000,1.0000 ZM 28.0000,18.0000 l -0.0000,-1.0000 h -1.0000 l -0.0000,1.0000 ZM 28.0000,15.0000 l -0.0000,-1.0000 h -1.0000 l -0.0000,1.0000 ZM 28.0000,13.0000 l -0.0000,-1.0000 h -1.0000 l -0.0000,1.0000 ZM 28.0000,11.0000 l -0.0000,-1.0000 h -1.0000 l -0.0000,1.0000 ZM 28.0000,10.0000 l -0.0000,-1.0000 h -1.0000 l -0.0000,1.0000 ZM 28.0000,9.0000 l -0.0000,-1.0000 h -1.0000 l -0.0000,1.0000 ZM 28.0000,8.0000 l -0.0000,-1.0000 h -1.0000 l -0.0000,1.0000 ZM 28.0000,5.0000 l -0.0000,-1.0000 h -1.0000 l -0.0000,1.0000 ZM 29.0000,39.0000 l -0.0000,-1.0000 h -1.0000 l -0.0000,1.0000 ZM 29.0000,35.0000 l -0.0000,-1.0000 h -1.0000 l -0.0000,1.0000 ZM 29.0000,34.0000 l -0.0000,-1.0000 h -1.0000 l -0.0000,1.0000 ZM 29.0000,33.0000 l -0.0000,-1.0000 h -1.0000 l -0.0000,1.0000 ZM 29.0000,29.0000 l -0.0000,-1.0000 h -1.0000 l -0.0000,1.0000 ZM 29.0000,27.0000 l -0.0000,-1.0000 h -1.0000 l -0.0000,1.0000 ZM 29.0000,26.0000 l -0.0000,-1.0000 h -1.0000 l -0.0000,1.0000 ZM 29.0000,24.0000 l -0.0000,-1.0000 h -1.0000 l -0.0000,1.0000 ZM 29.0000,23.0000 l -0.0000,-1.0000 h -1.0000 l -0.0000,1.0000 ZM 29.0000,21.0000 l -0.0000,-1.0000 h -1.0000 l -0.0000,1.0000 ZM 29.0000,18.0000 l -0.0000,-1.0000 h -1.0000 l -0.0000,1.0000 ZM 29.0000,16.0000 l -0.0000,-1.0000 h -1.0000 l -0.0000,1.0000 ZM 29.0000,15.0000 l -0.0000,-1.0000 h -1.0000 l -0.0000,1.0000 ZM 29.0000,11.0000 l -0.0000,-1.0000 h -1.0000 l -0.0000,1.0000 ZM 29.0000,9.0000 l -0.0000,-1.0000 h -1.0000 l -0.0000,1.0000 ZM 29.0000,8.0000 l -0.0000,-1.0000 h -1.0000 l -0.0000,1.0000 ZM 29.0000,7.0000 l -0.0000,-1.0000 h -1.0000 l -0.0000,1.0000 ZM 29.0000,6.0000 l -0.0000,-1.0000 h -1.0000 l -0.0000,1.0000 ZM 29.0000,5.0000 l -0.0000,-1.0000 h -1.0000 l -0.0000,1.0000 ZM 30.0000,41.0000 l -0.0000,-1.0000 h -1.0000 l -0.0000,1.0000 ZM 30.0000,40.0000 l -0.0000,-1.0000 h -1.0000 l -0.0000,1.0000 ZM 30.0000,39.0000 l -0.0000,-1.0000 h -1.0000 l -0.0000,1.0000 ZM 30.0000,36.0000 l -0.0000,-1.0000 h -1.0000 l -0.0000,1.0000 ZM 30.0000,33.0000 l -0.0000,-1.0000 h -1.0000 l -0.0000,1.0000 ZM 30.0000,32.0000 l -0.0000,-1.0000 h -1.0000 l -0.0000,1.0000 ZM 30.0000,27.0000 l -0.0000,-1.0000 h -1.0000 l -0.0000,1.0000 ZM 30.0000,23.0000 l -0.0000,-1.0000 h -1.0000 l -0.0000,1.0000 ZM 30.0000,21.0000 l -0.0000,-1.0000 h -1.0000 l -0.0000,1.0000 ZM 30.0000,20.0000 l -0.0000,-1.0000 h -1.0000 l -0.0000,1.0000 ZM 30.0000,19.0000 l -0.0000,-1.0000 h -1.0000 l -0.0000,1.0000 ZM 30.0000,18.0000 l -0.0000,-1.0000 h -1.0000 l -0.0000,1.0000 ZM 30.0000,17.0000 l -0.0000,-1.0000 h -1.0000 l -0.0000,1.0000 ZM 30.0000,13.0000 l -0.0000,-1.0000 h -1.0000 l -0.0000,1.0000 ZM 30.0000,12.0000 l -0.0000,-1.0000 h -1.0000 l -0.0000,1.0000 ZM 30.0000,7.0000 l -0.0000,-1.0000 h -1.0000 l -0.0000,1.0000 ZM 30.0000,6.0000 l -0.0000,-1.0000 h -1.0000 l -0.0000,1.0000 ZM 31.0000,41.0000 l -0.0000,-1.0000 h -1.0000 l -0.0000,1.0000 ZM 31.0000,39.0000 l -0.0000,-1.0000 h -1.0000 l -0.0000,1.0000 ZM 31.0000,38.0000 l -0.0000,-1.0000 h -1.0000 l -0.0000,1.0000 ZM 31.0000,37.0000 l -0.0000,-1.0000 h -1.0000 l -0.0000,1.0000 ZM 31.0000,35.0000 l -0.0000,-1.0000 h -1.0000 l -0.0000,1.0000 ZM 31.0000,34.0000 l -0.0000,-1.0000 h -1.0000 l -0.0000,1.0000 ZM 31.0000,32.0000 l -0.0000,-1.0000 h -1.0000 l -0.0000,1.0000 ZM 31.0000,31.0000 l -0.0000,-1.0000 h -1.0000 l -0.0000,1.0000 ZM 31.0000,30.0000 l -0.0000,-1.0000 h -1.0000 l -0.0000,1.0000 ZM 31.0000,29.0000 l -0.0000,-1.0000 h -1.0000 l -0.0000,1.0000 ZM 31.0000,27.0000 l -0.0000,-1.0000 h -1.0000 l -0.0000,1.0000 ZM 31.0000,24.0000 l -0.0000,-1.0000 h -1.0000 l -0.0000,1.0000 ZM 31.0000,22.0000 l -0.0000,-1.0000 h -1.0000 l -0.0000,1.0000 ZM 31.0000,20.0000 l -0.0000,-1.0000 h -1.0000 l -0.0000,1.0000 ZM 31.0000,19.0000 l -0.0000,-1.0000 h -1.0000 l -0.0000,1.0000 ZM 31.0000,16.0000 l -0.0000,-1.0000 h -1.0000 l -0.0000,1.0000 ZM 31.0000,14.0000 l -0.0000,-1.0000 h -1.0000 l -0.0000,1.0000 ZM 31.0000,13.0000 l -0.0000,-1.0000 h -1.0000 l -0.0000,1.0000 ZM 31.0000,7.0000 l -0.0000,-1.0000 h -1.0000 l -0.0000,1.0000 ZM 31.0000,6.0000 l -0.0000,-1.0000 h -1.0000 l -0.0000,1.0000 ZM 31.0000,5.0000 l -0.0000,-1.0000 h -1.0000 l -0.0000,1.0000 ZM 32.0000,41.0000 l -0.0000,-1.0000 h -1.0000 l -0.0000,1.0000 ZM 32.0000,39.0000 l -0.0000,-1.0000 h -1.0000 l -0.0000,1.0000 ZM 32.0000,33.0000 l -0.0000,-1.0000 h -1.0000 l -0.0000,1.0000 ZM 32.0000,32.0000 l -0.0000,-1.0000 h -1.0000 l -0.0000,1.0000 ZM 32.0000,30.0000 l -0.0000,-1.0000 h -1.0000 l -0.0000,1.0000 ZM 32.0000,26.0000 l -0.0000,-1.0000 h -1.0000 l -0.0000,1.0000 ZM 32.0000,24.0000 l -0.0000,-1.0000 h -1.0000 l -0.0000,1.0000 ZM 32.0000,23.0000 l -0.0000,-1.0000 h -1.0000 l -0.0000,1.0000 ZM 32.0000,22.0000 l -0.0000,-1.0000 h -1.0000 l -0.0000,1.0000 ZM 32.0000,21.0000 l -0.0000,-1.0000 h -1.0000 l -0.0000,1.0000 ZM 32.0000,20.0000 l -0.0000,-1.0000 h -1.0000 l -0.0000,1.0000 ZM 32.0000,15.0000 l -0.0000,-1.0000 h -1.0000 l -0.0000,1.0000 ZM 32.0000,14.0000 l -0.0000,-1.0000 h -1.0000 l -0.0000,1.0000 ZM 32.0000,13.0000 l -0.0000,-1.0000 h -1.0000 l -0.0000,1.0000 ZM 32.0000,6.0000 l -0.0000,-1.0000 h -1.0000 l -0.0000,1.0000 ZM 33.0000,41.0000 l -0.0000,-1.0000 h -1.0000 l -0.0000,1.0000 ZM 33.0000,38.0000 l -0.0000,-1.0000 h -1.0000 l -0.0000,1.0000 ZM 33.0000,37.0000 l -0.0000,-1.0000 h -1.0000 l -0.0000,1.0000 ZM 33.0000,36.0000 l -0.0000,-1.0000 h -1.0000 l -0.0000,1.0000 ZM 33.0000,35.0000 l -0.0000,-1.0000 h -1.0000 l -0.0000,1.0000 ZM 33.0000,32.0000 l -0.0000,-1.0000 h -1.0000 l -0.0000,1.0000 ZM 33.0000,30.0000 l -0.0000,-1.0000 h -1.0000 l -0.0000,1.0000 ZM 33.0000,26.0000 l -0.0000,-1.0000 h -1.0000 l -0.0000,1.0000 ZM 33.0000,25.0000 l -0.0000,-1.0000 h -1.0000 l -0.0000,1.0000 ZM 33.0000,21.0000 l -0.0000,-1.0000 h -1.0000 l -0.0000,1.0000 ZM 33.0000,18.0000 l -0.0000,-1.0000 h -1.0000 l -0.0000,1.0000 ZM 33.0000,17.0000 l -0.0000,-1.0000 h -1.0000 l -0.0000,1.0000 ZM 33.0000,16.0000 l -0.0000,-1.0000 h -1.0000 l -0.0000,1.0000 ZM 33.0000,15.0000 l -0.0000,-1.0000 h -1.0000 l -0.0000,1.0000 ZM 33.0000,13.0000 l -0.0000,-1.0000 h -1.0000 l -0.0000,1.0000 ZM 33.0000,12.0000 l -0.0000,-1.0000 h -1.0000 l -0.0000,1.0000 ZM 33.0000,11.0000 l -0.0000,-1.0000 h -1.0000 l -0.0000,1.0000 ZM 33.0000,10.0000 l -0.0000,-1.0000 h -1.0000 l -0.0000,1.0000 ZM 33.0000,9.0000 l -0.0000,-1.0000 h -1.0000 l -0.0000,1.0000 ZM 33.0000,7.0000 l -0.0000,-1.0000 h -1.0000 l -0.0000,1.0000 ZM 33.0000,6.0000 l -0.0000,-1.0000 h -1.0000 l -0.0000,1.0000 ZM 34.0000,33.0000 l -0.0000,-1.0000 h -1.0000 l -0.0000,1.0000 ZM 34.0000,32.0000 l -0.0000,-1.0000 h -1.0000 l -0.0000,1.0000 ZM 34.0000,29.0000 l -0.0000,-1.0000 h -1.0000 l -0.0000,1.0000 ZM 34.0000,28.0000 l -0.0000,-1.0000 h -1.0000 l -0.0000,1.0000 ZM 34.0000,26.0000 l -0.0000,-1.0000 h -1.0000 l -0.0000,1.0000 ZM 34.0000,22.0000 l -0.0000,-1.0000 h -1.0000 l -0.0000,1.0000 ZM 34.0000,18.0000 l -0.0000,-1.0000 h -1.0000 l -0.0000,1.0000 ZM 34.0000,16.0000 l -0.0000,-1.0000 h -1.0000 l -0.0000,1.0000 ZM 34.0000,14.0000 l -0.0000,-1.0000 h -1.0000 l -0.0000,1.0000 ZM 34.0000,13.0000 l -0.0000,-1.0000 h -1.0000 l -0.0000,1.0000 ZM 34.0000,9.0000 l -0.0000,-1.0000 h -1.0000 l -0.0000,1.0000 ZM 35.0000,41.0000 l -0.0000,-1.0000 h -1.0000 l -0.0000,1.0000 ZM 35.0000,40.0000 l -0.0000,-1.0000 h -1.0000 l -0.0000,1.0000 ZM 35.0000,39.0000 l -0.0000,-1.0000 h -1.0000 l -0.0000,1.0000 ZM 35.0000,38.0000 l -0.0000,-1.0000 h -1.0000 l -0.0000,1.0000 ZM 35.0000,37.0000 l -0.0000,-1.0000 h -1.0000 l -0.0000,1.0000 ZM 35.0000,36.0000 l -0.0000,-1.0000 h -1.0000 l -0.0000,1.0000 ZM 35.0000,35.0000 l -0.0000,-1.0000 h -1.0000 l -0.0000,1.0000 ZM 35.0000,33.0000 l -0.0000,-1.0000 h -1.0000 l -0.0000,1.0000 ZM 35.0000,32.0000 l -0.0000,-1.0000 h -1.0000 l -0.0000,1.0000 ZM 35.0000,31.0000 l -0.0000,-1.0000 h -1.0000 l -0.0000,1.0000 ZM 35.0000,28.0000 l -0.0000,-1.0000 h -1.0000 l -0.0000,1.0000 ZM 35.0000,27.0000 l -0.0000,-1.0000 h -1.0000 l -0.0000,1.0000 ZM 35.0000,25.0000 l -0.0000,-1.0000 h -1.0000 l -0.0000,1.0000 ZM 35.0000,24.0000 l -0.0000,-1.0000 h -1.0000 l -0.0000,1.0000 ZM 35.0000,23.0000 l -0.0000,-1.0000 h -1.0000 l -0.0000,1.0000 ZM 35.0000,22.0000 l -0.0000,-1.0000 h -1.0000 l -0.0000,1.0000 ZM 35.0000,21.0000 l -0.0000,-1.0000 h -1.0000 l -0.0000,1.0000 ZM 35.0000,20.0000 l -0.0000,-1.0000 h -1.0000 l -0.0000,1.0000 ZM 35.0000,19.0000 l -0.0000,-1.0000 h -1.0000 l -0.0000,1.0000 ZM 35.0000,13.0000 l -0.0000,-1.0000 h -1.0000 l -0.0000,1.0000 ZM 35.0000,11.0000 l -0.0000,-1.0000 h -1.0000 l -0.0000,1.0000 ZM 35.0000,9.0000 l -0.0000,-1.0000 h -1.0000 l -0.0000,1.0000 ZM 35.0000,8.0000 l -0.0000,-1.0000 h -1.0000 l -0.0000,1.0000 ZM 35.0000,6.0000 l -0.0000,-1.0000 h -1.0000 l -0.0000,1.0000 ZM 35.0000,5.0000 l -0.0000,-1.0000 h -1.0000 l -0.0000,1.0000 ZM 36.0000,41.0000 l -0.0000,-1.0000 h -1.0000 l -0.0000,1.0000 ZM 36.0000,35.0000 l -0.0000,-1.0000 h -1.0000 l -0.0000,1.0000 ZM 36.0000,29.0000 l -0.0000,-1.0000 h -1.0000 l -0.0000,1.0000 ZM 36.0000,28.0000 l -0.0000,-1.0000 h -1.0000 l -0.0000,1.0000 ZM 36.0000,25.0000 l -0.0000,-1.0000 h -1.0000 l -0.0000,1.0000 ZM 36.0000,22.0000 l -0.0000,-1.0000 h -1.0000 l -0.0000,1.0000 ZM 36.0000,20.0000 l -0.0000,-1.0000 h -1.0000 l -0.0000,1.0000 ZM 36.0000,18.0000 l -0.0000,-1.0000 h -1.0000 l -0.0000,1.0000 ZM 36.0000,13.0000 l -0.0000,-1.0000 h -1.0000 l -0.0000,1.0000 ZM 36.0000,9.0000 l -0.0000,-1.0000 h -1.0000 l -0.0000,1.0000 ZM 36.0000,5.0000 l -0.0000,-1.0000 h -1.0000 l -0.0000,1.0000 ZM 37.0000,41.0000 l -0.0000,-1.0000 h -1.0000 l -0.0000,1.0000 ZM 37.0000,39.0000 l -0.0000,-1.0000 h -1.0000 l -0.0000,1.0000 ZM 37.0000,38.0000 l -0.0000,-1.0000 h -1.0000 l -0.0000,1.0000 ZM 37.0000,37.0000 l -0.0000,-1.0000 h -1.0000 l -0.0000,1.0000 ZM 37.0000,35.0000 l -0.0000,-1.0000 h -1.0000 l -0.0000,1.0000 ZM 37.0000,33.0000 l -0.0000,-1.0000 h -1.0000 l -0.0000,1.0000 ZM 37.0000,31.0000 l -0.0000,-1.0000 h -1.0000 l -0.0000,1.0000 ZM 37.0000,29.0000 l -0.0000,-1.0000 h -1.0000 l -0.0000,1.0000 ZM 37.0000,27.0000 l -0.0000,-1.0000 h -1.0000 l -0.0000,1.0000 ZM 37.0000,22.0000 l -0.0000,-1.0000 h -1.0000 l -0.0000,1.0000 ZM 37.0000,21.0000 l -0.0000,-1.0000 h -1.0000 l -0.0000,1.0000 ZM 37.0000,18.0000 l -0.0000,-1.0000 h -1.0000 l -0.0000,1.0000 ZM 37.0000,17.0000 l -0.0000,-1.0000 h -1.0000 l -0.0000,1.0000 ZM 37.0000,16.0000 l -0.0000,-1.0000 h -1.0000 l -0.0000,1.0000 ZM 37.0000,14.0000 l -0.0000,-1.0000 h -1.0000 l -0.0000,1.0000 ZM 37.0000,13.0000 l -0.0000,-1.0000 h -1.0000 l -0.0000,1.0000 ZM 37.0000,12.0000 l -0.0000,-1.0000 h -1.0000 l -0.0000,1.0000 ZM 37.0000,11.0000 l -0.0000,-1.0000 h -1.0000 l -0.0000,1.0000 ZM 37.0000,10.0000 l -0.0000,-1.0000 h -1.0000 l -0.0000,1.0000 ZM 37.0000,9.0000 l -0.0000,-1.0000 h -1.0000 l -0.0000,1.0000 ZM 37.0000,8.0000 l -0.0000,-1.0000 h -1.0000 l -0.0000,1.0000 ZM 37.0000,7.0000 l -0.0000,-1.0000 h -1.0000 l -0.0000,1.0000 ZM 37.0000,6.0000 l -0.0000,-1.0000 h -1.0000 l -0.0000,1.0000 ZM 37.0000,5.0000 l -0.0000,-1.0000 h -1.0000 l -0.0000,1.0000 ZM 38.0000,41.0000 l -0.0000,-1.0000 h -1.0000 l -0.0000,1.0000 ZM 38.0000,39.0000 l -0.0000,-1.0000 h -1.0000 l -0.0000,1.0000 ZM 38.0000,38.0000 l -0.0000,-1.0000 h -1.0000 l -0.0000,1.0000 ZM 38.0000,37.0000 l -0.0000,-1.0000 h -1.0000 l -0.0000,1.0000 ZM 38.0000,35.0000 l -0.0000,-1.0000 h -1.0000 l -0.0000,1.0000 ZM 38.0000,33.0000 l -0.0000,-1.0000 h -1.0000 l -0.0000,1.0000 ZM 38.0000,24.0000 l -0.0000,-1.0000 h -1.0000 l -0.0000,1.0000 ZM 38.0000,23.0000 l -0.0000,-1.0000 h -1.0000 l -0.0000,1.0000 ZM 38.0000,19.0000 l -0.0000,-1.0000 h -1.0000 l -0.0000,1.0000 ZM 38.0000,18.0000 l -0.0000,-1.0000 h -1.0000 l -0.0000,1.0000 ZM 38.0000,16.0000 l -0.0000,-1.0000 h -1.0000 l -0.0000,1.0000 ZM 38.0000,12.0000 l -0.0000,-1.0000 h -1.0000 l -0.0000,1.0000 ZM 38.0000,11.0000 l -0.0000,-1.0000 h -1.0000 l -0.0000,1.0000 ZM 38.0000,10.0000 l -0.0000,-1.0000 h -1.0000 l -0.0000,1.0000 ZM 38.0000,9.0000 l -0.0000,-1.0000 h -1.0000 l -0.0000,1.0000 ZM 38.0000,7.0000 l -0.0000,-1.0000 h -1.0000 l -0.0000,1.0000 ZM 38.0000,6.0000 l -0.0000,-1.0000 h -1.0000 l -0.0000,1.0000 ZM 39.0000,41.0000 l -0.0000,-1.0000 h -1.0000 l -0.0000,1.0000 ZM 39.0000,39.0000 l -0.0000,-1.0000 h -1.0000 l -0.0000,1.0000 ZM 39.0000,38.0000 l -0.0000,-1.0000 h -1.0000 l -0.0000,1.0000 ZM 39.0000,37.0000 l -0.0000,-1.0000 h -1.0000 l -0.0000,1.0000 ZM 39.0000,35.0000 l -0.0000,-1.0000 h -1.0000 l -0.0000,1.0000 ZM 39.0000,33.0000 l -0.0000,-1.0000 h -1.0000 l -0.0000,1.0000 ZM 39.0000,32.0000 l -0.0000,-1.0000 h -1.0000 l -0.0000,1.0000 ZM 39.0000,30.0000 l -0.0000,-1.0000 h -1.0000 l -0.0000,1.0000 ZM 39.0000,29.0000 l -0.0000,-1.0000 h -1.0000 l -0.0000,1.0000 ZM 39.0000,26.0000 l -0.0000,-1.0000 h -1.0000 l -0.0000,1.0000 ZM 39.0000,23.0000 l -0.0000,-1.0000 h -1.0000 l -0.0000,1.0000 ZM 39.0000,20.0000 l -0.0000,-1.0000 h -1.0000 l -0.0000,1.0000 ZM 39.0000,16.0000 l -0.0000,-1.0000 h -1.0000 l -0.0000,1.0000 ZM 39.0000,15.0000 l -0.0000,-1.0000 h -1.0000 l -0.0000,1.0000 ZM 39.0000,10.0000 l -0.0000,-1.0000 h -1.0000 l -0.0000,1.0000 ZM 39.0000,7.0000 l -0.0000,-1.0000 h -1.0000 l -0.0000,1.0000 ZM 39.0000,5.0000 l -0.0000,-1.0000 h -1.0000 l -0.0000,1.0000 ZM 40.0000,41.0000 l -0.0000,-1.0000 h -1.0000 l -0.0000,1.0000 ZM 40.0000,35.0000 l -0.0000,-1.0000 h -1.0000 l -0.0000,1.0000 ZM 40.0000,33.0000 l -0.0000,-1.0000 h -1.0000 l -0.0000,1.0000 ZM 40.0000,32.0000 l -0.0000,-1.0000 h -1.0000 l -0.0000,1.0000 ZM 40.0000,31.0000 l -0.0000,-1.0000 h -1.0000 l -0.0000,1.0000 ZM 40.0000,30.0000 l -0.0000,-1.0000 h -1.0000 l -0.0000,1.0000 ZM 40.0000,27.0000 l -0.0000,-1.0000 h -1.0000 l -0.0000,1.0000 ZM 40.0000,26.0000 l -0.0000,-1.0000 h -1.0000 l -0.0000,1.0000 ZM 40.0000,21.0000 l -0.0000,-1.0000 h -1.0000 l -0.0000,1.0000 ZM 40.0000,20.0000 l -0.0000,-1.0000 h -1.0000 l -0.0000,1.0000 ZM 40.0000,19.0000 l -0.0000,-1.0000 h -1.0000 l -0.0000,1.0000 ZM 40.0000,18.0000 l -0.0000,-1.0000 h -1.0000 l -0.0000,1.0000 ZM 40.0000,17.0000 l -0.0000,-1.0000 h -1.0000 l -0.0000,1.0000 ZM 40.0000,14.0000 l -0.0000,-1.0000 h -1.0000 l -0.0000,1.0000 ZM 40.0000,13.0000 l -0.0000,-1.0000 h -1.0000 l -0.0000,1.0000 ZM 40.0000,12.0000 l -0.0000,-1.0000 h -1.0000 l -0.0000,1.0000 ZM 40.0000,11.0000 l -0.0000,-1.0000 h -1.0000 l -0.0000,1.0000 ZM 40.0000,5.0000 l -0.0000,-1.0000 h -1.0000 l -0.0000,1.0000 ZM 41.0000,41.0000 l -0.0000,-1.0000 h -1.0000 l -0.0000,1.0000 ZM 41.0000,40.0000 l -0.0000,-1.0000 h -1.0000 l -0.0000,1.0000 ZM 41.0000,39.0000 l -0.0000,-1.0000 h -1.0000 l -0.0000,1.0000 ZM 41.0000,38.0000 l -0.0000,-1.0000 h -1.0000 l -0.0000,1.0000 ZM 41.0000,37.0000 l -0.0000,-1.0000 h -1.0000 l -0.0000,1.0000 ZM 41.0000,36.0000 l -0.0000,-1.0000 h -1.0000 l -0.0000,1.0000 ZM 41.0000,35.0000 l -0.0000,-1.0000 h -1.0000 l -0.0000,1.0000 ZM 41.0000,33.0000 l -0.0000,-1.0000 h -1.0000 l -0.0000,1.0000 ZM 41.0000,32.0000 l -0.0000,-1.0000 h -1.0000 l -0.0000,1.0000 ZM 41.0000,31.0000 l -0.0000,-1.0000 h -1.0000 l -0.0000,1.0000 ZM 41.0000,30.0000 l -0.0000,-1.0000 h -1.0000 l -0.0000,1.0000 ZM 41.0000,25.0000 l -0.0000,-1.0000 h -1.0000 l -0.0000,1.0000 ZM 41.0000,21.0000 l -0.0000,-1.0000 h -1.0000 l -0.0000,1.0000 ZM 41.0000,17.0000 l -0.0000,-1.0000 h -1.0000 l -0.0000,1.0000 ZM 41.0000,16.0000 l -0.0000,-1.0000 h -1.0000 l -0.0000,1.0000 ZM 41.0000,15.0000 l -0.0000,-1.0000 h -1.0000 l -0.0000,1.0000 ZM 41.0000,11.0000 l -0.0000,-1.0000 h -1.0000 l -0.0000,1.0000 ZM 41.0000,10.0000 l -0.0000,-1.0000 h -1.0000 l -0.0000,1.0000 ZM 41.0000,7.0000 l -0.0000,-1.0000 h -1.0000 l -0.0000,1.0000 ZM 41.0000,6.0000 l -0.0000,-1.0000 h -1.0000 l -0.0000,1.0000 ZM 41.0000,5.0000 l -0.0000,-1.0000 h -1.0000 l -0.0000,1.0000 Z"/></g><g stroke-linejoin="miter" stroke-opacity="1.0" fill-opacity="0.0" stroke="rgb(0,0,0)" stroke-width="0.0" fill="rgb(0,0,0)" stroke-linecap="butt" stroke-miterlimit="10.0"><path d="M 5.0000,34.0000 M 5.0000,33.0000 M 5.0000,31.0000 M 5.0000,30.0000 M 5.0000,29.0000 M 5.0000,28.0000 M 5.0000,26.0000 M 5.0000,23.0000 M 5.0000,22.0000 M 5.0000,21.0000 M 5.0000,17.0000 M 5.0000,16.0000 M 5.0000,14.0000 M 5.0000,12.0000 M 6.0000,40.0000 M 6.0000,39.0000 M 6.0000,38.0000 M 6.0000,37.0000 M 6.0000,36.0000 M 6.0000,34.0000 M 6.0000,31.0000 M 6.0000,28.0000 M 6.0000,21.0000 M 6.0000,18.0000 M 6.0000,17.0000 M 6.0000,12.0000 M 6.0000,10.0000 M 6.0000,9.0000 M 6.0000,8.0000 M 6.0000,7.0000 M 6.0000,6.0000 M 7.0000,40.0000 M 7.0000,36.0000 M 7.0000,34.0000 M 7.0000,33.0000 M 7.0000,29.0000 M 7.0000,28.0000 M 7.0000,26.0000 M 7.0000,25.0000 M 7.0000,24.0000 M 7.0000,19.0000 M 7.0000,18.0000 M 7.0000,17.0000 M 7.0000,16.0000 M 7.0000,15.0000 M 7.0000,12.0000 M 7.0000,10.0000 M 7.0000,6.0000 M 8.0000,40.0000 M 8.0000,36.0000 M 8.0000,34.0000 M 8.0000,31.0000 M 8.0000,29.0000 M 8.0000,23.0000 M 8.0000,21.0000 M 8.0000,20.0000 M 8.0000,19.0000 M 8.0000,18.0000 M 8.0000,13.0000 M 8.0000,12.0000 M 8.0000,10.0000 M 8.0000,6.0000 M 9.0000,40.0000 M 9.0000,36.0000 M 9.0000,34.0000 M 9.0000,33.0000 M 9.0000,32.0000 M 9.0000,30.0000 M 9.0000,28.0000 M 9.0000,27.0000 M 9.0000,26.0000 M 9.0000,20.0000 M 9.0000,17.0000 M 9.0000,15.0000 M 9.0000,14.0000 M 9.0000,12.0000 M 9.0000,10.0000 M 9.0000,6.0000 M 10.0000,40.0000 M 10.0000,39.0000 M 10.0000,38.0000 M 10.0000,37.0000 M 10.0000,36.0000 M 10.0000,34.0000 M 10.0000,32.0000 M 10.0000,30.0000 M 10.0000,29.0000 M 10.0000,28.0000 M 10.0000,23.0000 M 10.0000,22.0000 M 10.0000,21.0000 M 10.0000,18.0000 M 10.0000,16.0000 M 10.0000,15.0000 M 10.0000,13.0000 M 10.0000,12.0000 M 10.0000,10.0000 M 10.0000,9.0000 M 10.0000,8.0000 M 10.0000,7.0000 M 10.0000,6.0000 M 11.0000,34.0000 M 11.0000,32.0000 M 11.0000,30.0000 M 11.0000,28.0000 M 11.0000,26.0000 M 11.0000,24.0000 M 11.0000,22.0000 M 11.0000,20.0000 M 11.0000,18.0000 M 11.0000,16.0000 M 11.0000,14.0000 M 11.0000,12.0000 M 12.0000,41.0000 M 12.0000,40.0000 M 12.0000,39.0000 M 12.0000,38.0000 M 12.0000,37.0000 M 12.0000,36.0000 M 12.0000,35.0000 M 12.0000,34.0000 M 12.0000,33.0000 M 12.0000,32.0000 M 12.0000,31.0000 M 12.0000,30.0000 M 12.0000,28.0000 M 12.0000,26.0000 M 12.0000,25.0000 M 12.0000,24.0000 M 12.0000,23.0000 M 12.0000,21.0000 M 12.0000,16.0000 M 12.0000,14.0000 M 12.0000,12.0000 M 12.0000,11.0000 M 12.0000,10.0000 M 12.0000,9.0000 M 12.0000,8.0000 M 12.0000,7.0000 M 12.0000,6.0000 M 12.0000,5.0000 M 13.0000,36.0000 M 13.0000,30.0000 M 13.0000,22.0000 M 13.0000,20.0000 M 13.0000,19.0000 M 13.0000,18.0000 M 13.0000,17.0000 M 13.0000,11.0000 M 13.0000,9.0000 M 13.0000,7.0000 M 13.0000,5.0000 M 14.0000,41.0000 M 14.0000,40.0000 M 14.0000,37.0000 M 14.0000,36.0000 M 14.0000,35.0000 M 14.0000,34.0000 M 14.0000,33.0000 M 14.0000,32.0000 M 14.0000,31.0000 M 14.0000,30.0000 M 14.0000,29.0000 M 14.0000,28.0000 M 14.0000,26.0000 M 14.0000,23.0000 M 14.0000,19.0000 M 14.0000,17.0000 M 14.0000,16.0000 M 14.0000,15.0000 M 14.0000,14.0000 M 14.0000,12.0000 M 14.0000,9.0000 M 14.0000,8.0000 M 14.0000,7.0000 M 14.0000,5.0000 M 15.0000,41.0000 M 15.0000,39.0000 M 15.0000,38.0000 M 15.0000,34.0000 M 15.0000,27.0000 M 15.0000,24.0000 M 15.0000,22.0000 M 15.0000,19.0000 M 15.0000,18.0000 M 15.0000,17.0000 M 15.0000,16.0000 M 15.0000,12.0000 M 15.0000,10.0000 M 15.0000,9.0000 M 15.0000,7.0000 M 16.0000,40.0000 M 16.0000,37.0000 M 16.0000,35.0000 M 16.0000,31.0000 M 16.0000,29.0000 M 16.0000,28.0000 M 16.0000,27.0000 M 16.0000,25.0000 M 16.0000,24.0000 M 16.0000,23.0000 M 16.0000,16.0000 M 16.0000,13.0000 M 16.0000,9.0000 M 16.0000,8.0000 M 16.0000,7.0000 M 17.0000,40.0000 M 17.0000,39.0000 M 17.0000,38.0000 M 17.0000,36.0000 M 17.0000,32.0000 M 17.0000,31.0000 M 17.0000,29.0000 M 17.0000,27.0000 M 17.0000,26.0000 M 17.0000,25.0000 M 17.0000,21.0000 M 17.0000,20.0000 M 17.0000,19.0000 M 17.0000,18.0000 M 17.0000,14.0000 M 17.0000,13.0000 M 17.0000,9.0000 M 18.0000,39.0000 M 18.0000,35.0000 M 18.0000,33.0000 M 18.0000,30.0000 M 18.0000,26.0000 M 18.0000,23.0000 M 18.0000,22.0000 M 18.0000,20.0000 M 18.0000,17.0000 M 18.0000,16.0000 M 18.0000,14.0000 M 18.0000,9.0000 M 18.0000,5.0000 M 19.0000,41.0000 M 19.0000,39.0000 M 19.0000,33.0000 M 19.0000,32.0000 M 19.0000,30.0000 M 19.0000,29.0000 M 19.0000,28.0000 M 19.0000,25.0000 M 19.0000,22.0000 M 19.0000,21.0000 M 19.0000,18.0000 M 19.0000,17.0000 M 19.0000,13.0000 M 19.0000,10.0000 M 19.0000,7.0000 M 20.0000,41.0000 M 20.0000,35.0000 M 20.0000,33.0000 M 20.0000,31.0000 M 20.0000,30.0000 M 20.0000,28.0000 M 20.0000,26.0000 M 20.0000,24.0000 M 20.0000,22.0000 M 20.0000,19.0000 M 20.0000,18.0000 M 20.0000,17.0000 M 20.0000,16.0000 M 20.0000,9.0000 M 20.0000,7.0000 M 21.0000,41.0000 M 21.0000,40.0000 M 21.0000,34.0000 M 21.0000,33.0000 M 21.0000,32.0000 M 21.0000,30.0000 M 21.0000,28.0000 M 21.0000,25.0000 M 21.0000,24.0000 M 21.0000,21.0000 M 21.0000,19.0000 M 21.0000,18.0000 M 21.0000,14.0000 M 21.0000,13.0000 M 21.0000,9.0000 M 21.0000,8.0000 M 21.0000,6.0000 M 22.0000,39.0000 M 22.0000,38.0000 M 22.0000,37.0000 M 22.0000,35.0000 M 22.0000,34.0000 M 22.0000,31.0000 M 22.0000,30.0000 M 22.0000,29.0000 M 22.0000,27.0000 M 22.0000,26.0000 M 22.0000,25.0000 M 22.0000,24.0000 M 22.0000,23.0000 M 22.0000,22.0000 M 22.0000,20.0000 M 22.0000,17.0000 M 22.0000,16.0000 M 22.0000,14.0000 M 22.0000,9.0000 M 22.0000,6.0000 M 22.0000,5.0000 M 23.0000,36.0000 M 23.0000,34.0000 M 23.0000,33.0000 M 23.0000,32.0000 M 23.0000,31.0000 M 23.0000,28.0000 M 23.0000,23.0000 M 23.0000,22.0000 M 23.0000,21.0000 M 23.0000,20.0000 M 23.0000,19.0000 M 23.0000,18.0000 M 23.0000,17.0000 M 23.0000,16.0000 M 23.0000,13.0000 M 23.0000,10.0000 M 23.0000,9.0000 M 24.0000,40.0000 M 24.0000,39.0000 M 24.0000,38.0000 M 24.0000,35.0000 M 24.0000,33.0000 M 24.0000,29.0000 M 24.0000,28.0000 M 24.0000,27.0000 M 24.0000,26.0000 M 24.0000,25.0000 M 24.0000,24.0000 M 24.0000,21.0000 M 24.0000,19.0000 M 24.0000,16.0000 M 24.0000,15.0000 M 24.0000,13.0000 M 24.0000,12.0000 M 24.0000,7.0000 M 24.0000,6.0000 M 25.0000,40.0000 M 25.0000,31.0000 M 25.0000,29.0000 M 25.0000,28.0000 M 25.0000,26.0000 M 25.0000,25.0000 M 25.0000,24.0000 M 25.0000,23.0000 M 25.0000,22.0000 M 25.0000,19.0000 M 25.0000,18.0000 M 25.0000,17.0000 M 25.0000,13.0000 M 25.0000,10.0000 M 25.0000,9.0000 M 25.0000,6.0000 M 26.0000,38.0000 M 26.0000,37.0000 M 26.0000,36.0000 M 26.0000,35.0000 M 26.0000,32.0000 M 26.0000,30.0000 M 26.0000,28.0000 M 26.0000,25.0000 M 26.0000,21.0000 M 26.0000,20.0000 M 26.0000,17.0000 M 26.0000,16.0000 M 26.0000,15.0000 M 26.0000,12.0000 M 26.0000,9.0000 M 26.0000,8.0000 M 26.0000,5.0000 M 27.0000,39.0000 M 27.0000,38.0000 M 27.0000,32.0000 M 27.0000,31.0000 M 27.0000,30.0000 M 27.0000,29.0000 M 27.0000,25.0000 M 27.0000,22.0000 M 27.0000,21.0000 M 27.0000,20.0000 M 27.0000,19.0000 M 27.0000,18.0000 M 27.0000,17.0000 M 27.0000,16.0000 M 27.0000,12.0000 M 27.0000,11.0000 M 27.0000,8.0000 M 28.0000,41.0000 M 28.0000,39.0000 M 28.0000,38.0000 M 28.0000,37.0000 M 28.0000,36.0000 M 28.0000,35.0000 M 28.0000,34.0000 M 28.0000,33.0000 M 28.0000,32.0000 M 28.0000,30.0000 M 28.0000,28.0000 M 28.0000,27.0000 M 28.0000,24.0000 M 28.0000,21.0000 M 28.0000,19.0000 M 28.0000,17.0000 M 28.0000,16.0000 M 28.0000,14.0000 M 28.0000,12.0000 M 28.0000,7.0000 M 28.0000,6.0000 M 29.0000,41.0000 M 29.0000,40.0000 M 29.0000,38.0000 M 29.0000,37.0000 M 29.0000,36.0000 M 29.0000,32.0000 M 29.0000,31.0000 M 29.0000,30.0000 M 29.0000,28.0000 M 29.0000,25.0000 M 29.0000,22.0000 M 29.0000,20.0000 M 29.0000,19.0000 M 29.0000,17.0000 M 29.0000,14.0000 M 29.0000,13.0000 M 29.0000,12.0000 M 29.0000,10.0000 M 30.0000,38.0000 M 30.0000,37.0000 M 30.0000,35.0000 M 30.0000,34.0000 M 30.0000,31.0000 M 30.0000,30.0000 M 30.0000,29.0000 M 30.0000,28.0000 M 30.0000,26.0000 M 30.0000,25.0000 M 30.0000,24.0000 M 30.0000,22.0000 M 30.0000,16.0000 M 30.0000,15.0000 M 30.0000,14.0000 M 30.0000,11.0000 M 30.0000,10.0000 M 30.0000,9.0000 M 30.0000,8.0000 M 30.0000,5.0000 M 31.0000,40.0000 M 31.0000,36.0000 M 31.0000,33.0000 M 31.0000,28.0000 M 31.0000,26.0000 M 31.0000,25.0000 M 31.0000,23.0000 M 31.0000,21.0000 M 31.0000,18.0000 M 31.0000,17.0000 M 31.0000,15.0000 M 31.0000,12.0000 M 31.0000,11.0000 M 31.0000,10.0000 M 31.0000,9.0000 M 31.0000,8.0000 M 32.0000,40.0000 M 32.0000,38.0000 M 32.0000,37.0000 M 32.0000,36.0000 M 32.0000,35.0000 M 32.0000,34.0000 M 32.0000,31.0000 M 32.0000,29.0000 M 32.0000,28.0000 M 32.0000,27.0000 M 32.0000,25.0000 M 32.0000,19.0000 M 32.0000,18.0000 M 32.0000,17.0000 M 32.0000,16.0000 M 32.0000,12.0000 M 32.0000,11.0000 M 32.0000,10.0000 M 32.0000,9.0000 M 32.0000,8.0000 M 32.0000,7.0000 M 32.0000,5.0000 M 33.0000,40.0000 M 33.0000,39.0000 M 33.0000,34.0000 M 33.0000,33.0000 M 33.0000,31.0000 M 33.0000,29.0000 M 33.0000,28.0000 M 33.0000,27.0000 M 33.0000,24.0000 M 33.0000,23.0000 M 33.0000,22.0000 M 33.0000,20.0000 M 33.0000,19.0000 M 33.0000,14.0000 M 33.0000,8.0000 M 33.0000,5.0000 M 34.0000,41.0000 M 34.0000,40.0000 M 34.0000,39.0000 M 34.0000,38.0000 M 34.0000,37.0000 M 34.0000,36.0000 M 34.0000,35.0000 M 34.0000,34.0000 M 34.0000,31.0000 M 34.0000,30.0000 M 34.0000,27.0000 M 34.0000,25.0000 M 34.0000,24.0000 M 34.0000,23.0000 M 34.0000,21.0000 M 34.0000,20.0000 M 34.0000,19.0000 M 34.0000,17.0000 M 34.0000,15.0000 M 34.0000,12.0000 M 34.0000,11.0000 M 34.0000,10.0000 M 34.0000,8.0000 M 34.0000,7.0000 M 34.0000,6.0000 M 34.0000,5.0000 M 35.0000,34.0000 M 35.0000,30.0000 M 35.0000,29.0000 M 35.0000,26.0000 M 35.0000,18.0000 M 35.0000,17.0000 M 35.0000,16.0000 M 35.0000,15.0000 M 35.0000,14.0000 M 35.0000,12.0000 M 35.0000,10.0000 M 35.0000,7.0000 M 36.0000,40.0000 M 36.0000,39.0000 M 36.0000,38.0000 M 36.0000,37.0000 M 36.0000,36.0000 M 36.0000,34.0000 M 36.0000,33.0000 M 36.0000,32.0000 M 36.0000,31.0000 M 36.0000,30.0000 M 36.0000,27.0000 M 36.0000,26.0000 M 36.0000,24.0000 M 36.0000,23.0000 M 36.0000,21.0000 M 36.0000,19.0000 M 36.0000,17.0000 M 36.0000,16.0000 M 36.0000,15.0000 M 36.0000,14.0000 M 36.0000,12.0000 M 36.0000,11.0000 M 36.0000,10.0000 M 36.0000,8.0000 M 36.0000,7.0000 M 36.0000,6.0000 M 37.0000,40.0000 M 37.0000,36.0000 M 37.0000,34.0000 M 37.0000,32.0000 M 37.0000,30.0000 M 37.0000,28.0000 M 37.0000,26.0000 M 37.0000,25.0000 M 37.0000,24.0000 M 37.0000,23.0000 M 37.0000,20.0000 M 37.0000,19.0000 M 37.0000,15.0000 M 38.0000,40.0000 M 38.0000,36.0000 M 38.0000,34.0000 M 38.0000,32.0000 M 38.0000,31.0000 M 38.0000,30.0000 M 38.0000,29.0000 M 38.0000,28.0000 M 38.0000,27.0000 M 38.0000,26.0000 M 38.0000,25.0000 M 38.0000,22.0000 M 38.0000,21.0000 M 38.0000,20.0000 M 38.0000,17.0000 M 38.0000,15.0000 M 38.0000,14.0000 M 38.0000,13.0000 M 38.0000,8.0000 M 38.0000,5.0000 M 39.0000,40.0000 M 39.0000,36.0000 M 39.0000,34.0000 M 39.0000,31.0000 M 39.0000,28.0000 M 39.0000,27.0000 M 39.0000,25.0000 M 39.0000,24.0000 M 39.0000,22.0000 M 39.0000,21.0000 M 39.0000,19.0000 M 39.0000,18.0000 M 39.0000,17.0000 M 39.0000,14.0000 M 39.0000,13.0000 M 39.0000,12.0000 M 39.0000,11.0000 M 39.0000,9.0000 M 39.0000,8.0000 M 39.0000,6.0000 M 40.0000,40.0000 M 40.0000,39.0000 M 40.0000,38.0000 M 40.0000,37.0000 M 40.0000,36.0000 M 40.0000,34.0000 M 40.0000,29.0000 M 40.0000,28.0000 M 40.0000,25.0000 M 40.0000,24.0000 M 40.0000,23.0000 M 40.0000,22.0000 M 40.0000,16.0000 M 40.0000,15.0000 M 40.0000,10.0000 M 40.0000,9.0000 M 40.0000,8.0000 M 40.0000,7.0000 M 40.0000,6.0000 M 41.0000,34.0000 M 41.0000,29.0000 M 41.0000,28.0000 M 41.0000,27.0000 M 41.0000,26.0000 M 41.0000,24.0000 M 41.0000,23.0000 M 41.0000,22.0000 M 41.0000,20.0000 M 41.0000,19.0000 M 41.0000,18.0000 M 41.0000,14.0000 M 41.0000,13.0000 M 41.0000,12.0000 M 41.0000,9.0000 M 41.0000,8.0000 "/></g></svg>